<?xml version="1.0" encoding="utf-8"?>
<!-- Generator: Adobe Illustrator 23.1.0, SVG Export Plug-In . SVG Version: 6.00 Build 0)  -->
<svg version="1.1" id="图层_1" xmlns="http://www.w3.org/2000/svg" xmlns:xlink="http://www.w3.org/1999/xlink" x="0px" y="0px"
	 viewBox="0 0 562.6 240.45" style="enable-background:new 0 0 562.6 240.45;" xml:space="preserve">
<style type="text/css">
	.st0{fill:#CB2825;}
	.st1{fill:#FFFFFF;}
</style>
<g>
	<path class="st0" d="M298.58,185.75c-0.5,0.06-1.35-0.43-1.2,0.68c0.07,0.5,1.54,0.99,0.03,1.45c-0.66,0.2-1.42-0.28-1.5-0.85
		c-0.17-1.17-0.81-1.34-1.78-1.36c-2.63-0.04-5.26-0.22-7.88-0.18c-5.76,0.1-11.6,0.61-17.25,0.08c-6.5-0.61-12.99,1.32-19.39-0.6
		c1.94,1.95,4.13,2.36,6.57,2.49c3.61,0.19,7.34-0.33,10.79,0.19c10.4,1.57,20.87,1.26,31.28,1.44c3.18,0.05,7.59,1.72,10.28-2.29
		c0.34-0.5,1.11,0.01,1.27,0.78c0.18,0.88,0.9,1.51,1.61,1.12c2.71-1.52,5.48-0.7,8.25-0.53c1.47,0.09,2.39-0.78,3.01-2.25
		C314.48,184.54,306.53,184.8,298.58,185.75z"/>
	<path class="st0" d="M369.51,168.45c-1.74,0.04-1.5,1.54-1.25,2.86c0.8,4.11-2.72,11.89-6.36,14.02c-0.6,0.35-1.54,0.59-2.13,0.36
		c-1.23-0.48-2.52,0.06-3.48-0.17c-2.92-0.7-5.41,1.5-8.14,0.77c-0.81-0.22-1.4-0.53-1.82,0.35c-0.2,0.42-0.26,1-0.16,1.46
		c0.23,1.04,1.13,0.78,1.82,0.71c3.04-0.28,6.07-0.68,9.11-0.88c7.39-0.49,13.68-7.12,13.25-12.99c0-1.58,0.1-2.84-0.03-4.08
		C370.23,170,371,168.42,369.51,168.45z"/>
	<path class="st0" d="M235.59,171.41c0.51-3.27-1.1-6.49-0.05-9.72c0.27-0.85,0.71-1.76,0.17-2.51c-0.54-0.76-1.27,0.19-1.97,0.16
		c-1.62-0.08-1.05,1.26-1.28,2.15c-1.16,4.64,0.86,8.77,1.9,13.1C236.17,173.92,235.41,172.58,235.59,171.41z"/>
	<path class="st0" d="M373.77,83.74c-1.74-0.21-0.74,1.48-1.25,2.18c-0.81,1.96-1.18,3.97-0.81,6.08
		c-0.29,4.01-0.89,8.04,0.45,12.18c0.88-0.84,0.73-1.58,0.7-2.35c-0.08-2.37-1.05-6.04,0.07-6.87c3.54-2.65,0.61-6.14,2.05-8.87
		C375.45,85.2,375,83.89,373.77,83.74z"/>
	<path class="st0" d="M372,73.35c1.82-1.07,1.38-2.2,1-3.45c-1.09-3.59-0.6-7.76-3.88-10.54c1.4-5.05-2.29-3.46-4.96-3.51
		C370.25,60.09,370.59,66.91,372,73.35z"/>
	<path class="st0" d="M232.47,155.47c-0.03,0.84-0.44,2,0.47,2.38c1.21,0.5,1.5-0.86,2.15-1.56c2.36-2.57-0.04-5.54,0.71-8.26
		c0.07-0.25-1.32-1.27-2.03-1.27c-1.05-0.01-1.09,1.1-1.08,1.99c0.01,1.37,0,2.74,0,4.32C232.62,153.73,232.5,154.6,232.47,155.47z"
		/>
	<path class="st0" d="M285.15,54.99c0.19,0,0.47-0.52,0.56-0.84c0.19-0.7-0.38-0.83-0.86-0.88c-5.42-0.55-10.76-0.08-16.07,0.76
		c0,0.34,0.01,0.67,0.01,1.01C274.25,55.02,279.7,55.03,285.15,54.99z"/>
	<path class="st0" d="M370.99,159.21c0.37-7.06,0.73-14.11,1.1-21.17C370.2,139.99,369.27,156.44,370.99,159.21z"/>
	<path class="st0" d="M340.95,187.14c-0.37,0.26-1.19,0.59-1.23,0.52c-2.43-3.92-5.87,0.05-8.67-1.15
		c2.96,3.29,6.82,2.25,10.46,2.33c1.09,0.02,1.5-0.76,1.59-1.72c0.03-0.36,0.02-0.94-0.18-1.06
		C341.73,185.36,341.58,186.7,340.95,187.14z"/>
	<path class="st0" d="M297.02,55.55L297.02,55.55c2.76-0.9,5.63-0.64,8.43-0.49c2.9,0.15,5.74-1.35,8.39-0.76
		c2.75,0.62,5.38,0.62,8.09,0.54c13.2,0,26.39,0,40.11,0c-2.91-1.73-5.61-2.78-8.32-2.16c-5.23,1.2-10.46-0.01-15.66,0.48
		c-4.22,0.39-8.27-2.27-12.46-1.14c-2.35,0.64-4.44,1.63-6.68-0.03c-1.5-0.9-2.73,1.15-4.26,0.37c-6.29-3.23-11.9-0.03-17.63,1.93
		c-0.91,0.23-1.59-0.05-2.4-0.61c-3.01-2.06-5.68-1.23-7.39,2.32C290.54,54.56,293.8,56.14,297.02,55.55z"/>
	<path class="st0" d="M236.6,178.47c-0.17-0.86-0.47-1.44-1.47-0.99c-1.08,0.48-1.13,1.33-0.55,2.16c1.86,2.62,4.4,4.16,8.69,5.1
		C241.08,181.53,237.22,181.71,236.6,178.47z"/>
	<path class="st0" d="M232.84,106.35c0.31,0.4-0.46,2.09,1,2.24c1.51,0.15,1.45-1.19,1.48-2.38c0.02-1.09,0.56-2.16,0.61-3.26
		c0.05-1.27-1.33-1.29-2.08-1.8c-0.37-0.26-1.11,0.32-0.84,0.8C233.84,103.39,232.24,104.51,232.84,106.35z"/>
	<path class="st0" d="M236.32,123.92c-0.59-0.44-1.15-0.97-1.78-1.32c0.3,0.02,0.66-0.09,1.12-0.42c0.11-1.33,0.48-2.98-1.21-3.4
		c-1.02-0.25-2.2,0.42-1.78,2c0.48,0.4,0.79,1.16,1.27,1.56c-0.37-0.12-0.77-0.16-1.23-0.09c-1.5,3.02-0.17,5.58,1.42,8.99
		C234.67,128.18,235.25,125.96,236.32,123.92z"/>
	<path class="st0" d="M264.82,55.78c0.82-0.04,1.45-0.43,1.26-1.43c-0.16-0.89-0.74-0.63-1.37-0.58c-2.96,0.22-5.93,0.34-9.34,0.52
		C258.64,56.32,261.75,55.92,264.82,55.78z"/>
	<path class="st0" d="M238.32,63.42c2.2-2.12,4.65-4.48,7.22-6.96C240.82,57.3,238.63,59.59,238.32,63.42z"/>
	<path class="st0" d="M371.72,120.59c-0.42-0.01-0.84-0.01-1.27-0.02c0,2.84,0,5.67,0,8.51c-0.46,1.87-0.57,3.71,0.24,5.72
		c1.8-1.59,1.16-3.34,1.02-5c0,0,0,0,0,0c0,0,0,0,0,0C371.72,126.73,371.72,123.66,371.72,120.59z"/>
	<path class="st0" d="M372.25,75.55c-0.87,0.15-1.51,0.91-1.11,1.6c0.94,1.63,0.36,3.45,0.97,5.33c2.02-1.75,1.14-3.78,1.39-5.56
		C373.61,76.14,373.3,75.37,372.25,75.55z"/>
	<path class="st0" d="M233.65,117.02c0.69-0.37,2.16,0.65,2.1-1.14c-0.02-0.74-0.03-1.7-1.03-1.58c-0.99,0.12-2.39-0.04-2.52,1.57
		C232.11,116.89,232.78,117.08,233.65,117.02z"/>
	<path class="st0" d="M243.29,65.92c0.7,1.94,1.05,5.52,0.49,6.71c-1.49,3.18-1.79,4.85,1.98,5.74c-0.69,1.27-2.73,0.26-2.45,1.54
		c0.2,0.92,0.2,1.81,0.12,2.7c0.16-0.05,0.3-0.1,0.46-0.14c-0.01,0.02-0.03,0.03-0.04,0.05c1.17,0.32,1.73-0.2,2.37-0.62
		c0.14-0.09,0.28-0.19,0.43-0.29c2.66-0.89,5.08-1.84,7.31-2.85c1.85-0.02,3.11-1.33,4.49-2.28c0.31-0.18,0.62-0.36,0.92-0.54
		c0.44-0.21,0.91-0.37,1.42-0.4c0.78-0.05,1.48-0.72,1.51-1.55c0.34-0.25,0.66-0.51,0.97-0.77c0.37-0.12,0.72-0.23,1.1-0.35
		c-0.17-0.05-0.34-0.08-0.51-0.12c0.02-0.01,0.04-0.03,0.05-0.04h-0.23c-1.78-0.41-3.38-0.32-4.89,0h-12.48
		c0.8-1.46,0.28-3.04,0.48-4.46c0.02-0.16,0.02-0.31,0.01-0.46c2.88,0,5.71-0.27,8.52-0.72h6.01c2.44,0.77,4.79,0.52,7.12,0.41
		c0.82-0.04,1.45-0.43,1.26-1.43c-0.04-0.24-0.12-0.39-0.22-0.49V61.5c-5.17,0.15-10.33-1.27-15.52-0.41
		c-1.22,0.47-2.08-0.63-3.17-0.73c-1.55-0.4-3.05,0.04-4.42,0.6C244.27,61.8,241.98,62.27,243.29,65.92z"/>
	<path class="st0" d="M322.63,87.7c0.24,0.06,0.47,0.12,0.71,0.19c0.92,0.24,1.89,0.59,2.85,0.38c0.73-0.16,1.45-0.37,2.16-0.57
		h0.82c0.04,0.15,0.08,0.33,0.18,0.39c0.13,0.09,0.38-0.03,0.52-0.06c0.41-0.1,0.83-0.22,1.24-0.33h1.91v-0.55
		c0.06-0.02,0.13-0.04,0.19-0.07c0.06-0.02,0.1-0.06,0.13-0.09c0.07-0.02,0.13-0.04,0.19-0.04c-0.05,0-0.1-0.01-0.16-0.01
		c0.12-0.24-0.1-0.62-0.26-0.82c0,0-0.01,0-0.01,0c0.02-0.06,0.04-0.12,0.05-0.17c0.05-0.25-0.03-0.49-0.13-0.72v-1.83
		c0.07-0.21,0.13-0.43,0.14-0.68c0.02-0.45-0.04-0.9-0.03-1.35c0.01-0.34,0.26-0.87-0.03-1.15c-0.02-0.02-0.06-0.03-0.08-0.05v-0.03
		h-0.06c-0.23-0.11-0.52-0.07-0.78,0h-2.98c-0.01,0-0.01,0-0.02,0c-0.74-0.21-1.51-0.15-2.29-0.06c-0.38,0.01-0.77,0.03-1.15,0.05
		c-0.43-0.03-0.86-0.06-1.28-0.1c-0.17-0.04-0.35-0.06-0.53-0.04c-0.2,0.02-0.41,0.08-0.62,0.13c-0.06-0.02-0.13-0.03-0.19-0.06
		c-0.1-0.1-0.21-0.18-0.3-0.28c-0.02-0.02-0.48,0.12-0.43,0.1c-0.32,0.08-0.64,0.17-0.96,0.25h-1.32v0.34
		c-0.08,0.02-0.15,0.04-0.19,0.08c-0.26,0.24-0.03,0.52,0.19,0.79v0.4c-0.04,0.02-0.09,0.03-0.13,0.05c-0.15,0.08-0.2,0.2-0.21,0.36
		c-0.01,0.35,0.19,0.71,0.34,1.02v0.82c-0.03,0.05-0.06,0.11-0.09,0.16c-0.1,0.23-0.18,0.47-0.22,0.72
		c-0.09,0.54-0.03,1.08,0.17,1.58c0,0.01,0.06,0,0.13-0.02v0.18c-0.15,0.1-0.26,0.24-0.29,0.45c0.03-0.01,0.06-0.01,0.08-0.02
		c0.06-0.01,0.13-0.03,0.2-0.05v0.69H322.63z M329.6,88.08c0.18-0.05,0.36-0.1,0.55-0.15C329.95,88,329.73,88.04,329.6,88.08z"/>
	<path class="st0" d="M331.37,66.44c-0.8-0.21-1.62-0.29-2.45-0.23c-0.15,0.01-0.31,0.04-0.47,0.08c-0.81,0-1.62,0.01-2.43,0.01
		c-0.17-0.05-0.33-0.1-0.5-0.14c-1.04-0.25-2.11,0-3.14,0.28h-2.29v0.61c-0.12,0.03-0.24,0.07-0.31,0.14c-0.25,0.25-0.3,1-0.28,1.33
		c0.02,0.26,0.09,0.5,0.25,0.71c0.12,0.16,0.25,0.28,0.33,0.45v0.04c0,0-0.01,0-0.01,0c0.01,0,0,0.01,0.01,0.01v0.02
		c-0.04,0.03-0.09,0.07-0.11,0.12c-0.13,0.26-0.05,0.72-0.03,0.99c0,0.06,0.01,0.11,0.02,0.17c-0.01,0.07-0.02,0.15-0.03,0.22
		c0.02-0.01,0.04-0.01,0.06-0.02c0.02,0.22,0.05,0.44,0.07,0.66c0.01,0.08,0.01,0.16,0.02,0.24v0.29c-0.08,0.09-0.1,0.21-0.11,0.42
		c-0.02,0.38-0.03,0.76-0.04,1.13c0.05-0.01,0.1-0.03,0.15-0.04v0.26h1.04c0.26,0.12,0.56,0.17,0.84,0.16
		c0.63-0.01,1.24-0.3,1.84,0.01c0.58,0.3,0.97,0.62,1.67,0.55c0.71-0.07,1.37-0.34,2.08-0.36c0.73-0.02,1.48,0.11,2.21,0.01
		c0.54-0.08,1.08-0.22,1.61-0.37h1.63v-0.48c0.1-0.05,0.2-0.1,0.25-0.19c0.05-0.09,0.05-0.19,0.02-0.28
		c0.15-0.04,0.25-0.07,0.25-0.07c-0.05-0.21-0.16-0.37-0.3-0.52c0.04-0.16,0-0.39-0.02-0.55c-0.03-0.33-0.09-0.65-0.16-0.98
		c0.18-0.18,0.21-0.43,0.22-0.71c0.02-0.88,0-1.76,0-2.63c0-0.32-0.06-0.51-0.25-0.67v-0.68H331.37z"/>
	<rect x="276.26" y="148.95" class="st0" width="15.9" height="4.68"/>
	<path class="st0" d="M261,179.83c0.37,0.03,0.74,0.03,1.1,0.05c0,0.06,0,0.1,0,0.1c0.1-0.02,0.2-0.06,0.29-0.09
		c1.22,0.05,2.45,0.07,3.7,0c3.13-0.2,6.4-0.2,9.61-0.23l-0.75-3.23c0.12,0.01,0.24,0,0.35-0.02c0.06-0.01,0.11-0.03,0.17-0.04
		c-0.04,0.01,0.03,0,0.2-0.05c0.2-0.05,0.4-0.09,0.61-0.15c1.11,0.13,2.2,0.21,3.25,0.21c1.28,0,1.92-0.77,1.92-2.31v-0.7
		c0.02-0.04,0.04-0.08,0.06-0.12c2.3-4.04-0.16-8.63,0.53-12.87c0.03-0.17-0.23-0.57-0.59-0.96v-1h-10.51v-0.01
		c0.44-1.46,0.42-4.36,0.44-7.04c0.02-3.64,0.56-7.23,0.61-10.88c0.03-2.6-0.47-3.63-1.04-4.43v-1.03h8.78
		c0.56-1.58,1.03-3.23,1.41-4.94h-12.46c-0.01-0.28-0.03-0.46-0.05-0.46c-0.39-0.1-0.66,0.09-0.86,0.46h-0.41v1.69
		c-0.12,1.1-0.08,2.29-0.08,2.69c0,1.16-0.04,2.34,0.03,3.5c0,0.02,0.01,0.04,0.01,0.06c-0.34,0.16-0.48,3.85,0.04,3.81v0.05
		c-0.12,0.24-0.22,0.48-0.26,0.77c0-0.01,0-0.03-0.01-0.04c0,0.02,0,0.04,0,0.06c0,0.01-0.01,0.02-0.01,0.03
		c-0.14,1.37-0.03,2.81-0.01,4.18c0,0.08,0.01,0.15,0.02,0.22c0,0.17,0,0.34,0,0.51c0.01-0.05,0.02-0.1,0.03-0.16
		c0.04,0.33,0.11,0.64,0.19,0.95c-0.03,0.89-0.06,1.77-0.1,2.64c-0.46,2.5-0.65,5.09-0.63,7.67c-0.12,0.98-0.25,1.94-0.39,2.89
		c-0.05,0.1-0.08,0.21-0.14,0.31c-0.15,0.28-0.21,0.53-0.24,0.79c0-0.01-0.01-0.02-0.01-0.04c0,0.07,0,0.14,0,0.21
		c-0.01,0.09-0.01,0.18-0.01,0.27c-0.19,0.06-0.38,0.14-0.58,0.2c-0.03,0.01-0.02,0.83-0.02,0.73c0,0.43,0,0.86-0.01,1.28
		c-0.11,0.1-0.21,0.21-0.33,0.3c-0.05,0.04-0.02,0.79-0.02,0.73c-0.01,0.59-0.01,1.18-0.01,1.77c0,0.17,0,0.33,0,0.5
		c-0.05,0.2-0.09,0.4-0.14,0.59c-0.02-0.41-0.04-0.83-0.05-1.24c0-0.03,0-0.06-0.01-0.09c-0.22,0.52-0.36,1.06-0.42,1.62
		c-0.02,0.23-0.03,0.45-0.03,0.68c-0.03-0.11-0.05,0.41-0.06,1.13c-0.03,0.09-0.05,0.18-0.08,0.27c-0.17,0.15-0.36,0.29-0.57,0.38
		c-0.04,0.02-0.02,0.82-0.02,0.73c0,0.27,0,0.54,0,0.81c-0.04,0.13-0.08,0.25-0.12,0.38c-0.14,0.03-0.28,0.07-0.41,0.15
		c-0.03,0.02-0.03,0.41-0.02,0.61c-0.26,0.11-0.52,0.21-0.79,0.27c-0.03,0.01-0.02,0.84-0.02,0.73c-0.01,0.54-0.01,1.08-0.01,1.61
		C261.74,178.19,261.38,179.02,261,179.83z M276.72,164.29c-0.15,0.59-0.16,1.16-0.1,1.73c-0.47,1.51-1.01,2.97-1.59,4.37
		c-0.8,0.89-1.13,1.95-1.4,3.04c-0.71,1.39-1.48,2.72-2.31,3.99c-0.11,0.03-0.21,0.06-0.32,0.09c-0.08,0.02-0.15,0.04-0.23,0.06
		c-0.07,0.02-0.13,0.04-0.2,0.06c-0.09,0.18-0.22,0.32-0.37,0.45l-4.1-2.59c0.08-0.15,0.14-0.31,0.25-0.45
		c0.48-0.62,0.71-1.37,1.02-2.08c0.22-0.36,0.44-0.72,0.66-1.09c0.07-0.08,0.13-0.16,0.21-0.23c0.26-0.24,0.59-0.47,0.55-0.84
		c-0.01-0.07-0.04-0.11-0.07-0.15c0.77-1.45,1.44-2.95,2.02-4.49c1.34-0.66,2.64-1.38,3.9-2.19c0.04-0.03,0.02-0.8,0.02-0.73
		c0-0.11,0-0.21,0-0.32l2.4,0.51C276.63,163.51,276.8,163.97,276.72,164.29z"/>
	<rect x="276.26" y="139.72" class="st0" width="15.9" height="4.81"/>
	<path class="st0" d="M283.19,95.45c-0.25,0.15-0.49,0.3-0.74,0.44C282.7,95.75,282.94,95.6,283.19,95.45z"/>
	<path class="st0" d="M279.6,97.55c0.03-0.02,0.06-0.04,0.09-0.05c-0.12,0.07-0.24,0.13-0.36,0.2
		C279.41,97.65,279.51,97.6,279.6,97.55z"/>
	<path class="st0" d="M273.86,119.19C273.74,119.21,273.76,119.25,273.86,119.19L273.86,119.19z"/>
	<path class="st0" d="M313.08,100.49c-0.02-0.09-0.09-0.03-0.08,0.04l0.08,0L313.08,100.49z"/>
	<path class="st0" d="M313.02,100.74C313.04,100.78,313.07,100.82,313.02,100.74L313.02,100.74z"/>
	<path class="st0" d="M313.11,100.77c0.01,0.04,0.02,0.08,0.02,0.13C313.13,100.85,313.13,100.81,313.11,100.77z"/>
	<path class="st0" d="M313.06,100.65c0.02,0.04,0.04,0.08,0.05,0.12c-0.01-0.05-0.01-0.11-0.03-0.15L313.06,100.65z"/>
	<path class="st0" d="M313.13,100.96c0,0.01,0,0.03,0,0.04c0,0,0,0,0,0C313.14,100.98,313.13,100.97,313.13,100.96z"/>
	<path class="st0" d="M313.1,101.27c0.01-0.1,0.02-0.18,0.03-0.27c-0.04-0.02-0.09,0.03-0.11-0.04l-0.08-0.18l0.06-0.07
		c0.01,0.01,0.01,0.02,0.02,0.04l-0.05-0.13c-0.07,0.23-0.14,0.5-0.02,0.74C313,101.35,313.06,101.34,313.1,101.27z"/>
	<path class="st0" d="M313.13,100.9c0,0.02,0,0.04,0,0.06C313.13,100.94,313.13,100.92,313.13,100.9z"/>
	<path class="st0" d="M310.76,104.65c0.01-0.03,0.01-0.06,0.03-0.08L310.76,104.65z"/>
	<path class="st0" d="M310.76,104.72l0.04-0.04l-0.04-0.02l0.01-0.02c-0.01,0.03-0.02,0.05-0.06,0.06l0.06,0.17l-0.05,0.03
		c-0.03,0.01-0.03-0.03-0.03-0.06l0.01,0.21l0.1-0.03c0.13-0.16,0.11-0.37,0.16-0.55l-0.12,0.36L310.76,104.72z"/>
	<path class="st0" d="M352.78,80.68c0.02-0.04,0.06-0.12,0.05-0.18c-0.01-0.04-0.01-0.02-0.05-0.02c-0.02,0-0.04,0-0.06-0.01
		c-0.11-0.03-0.2-0.11-0.29-0.2v-0.13h-0.13c-0.05-0.05-0.11-0.1-0.17-0.13c-0.03-0.01-0.07-0.02-0.11-0.02
		c-0.02,0-0.04,0-0.06,0.01c-0.15,0.02-0.3,0.07-0.44,0.11c-0.05,0.01-0.09,0.03-0.14,0.04h-0.11c-0.7-0.08-1.4-0.13-2.1-0.14
		c-0.79-0.01-1.59-0.05-2.37,0.11c0,0,0.01,0,0.01,0c-0.01,0-0.01,0-0.02,0.01c-0.04,0.01-0.09,0.01-0.13,0.02
		c-0.01,0-0.01,0-0.02,0h-1.07c-0.18-0.01-0.36-0.02-0.54-0.04c-0.78-0.1-1.54-0.23-2.33-0.1c-0.21,0.03-0.41,0.09-0.62,0.14h-2.72
		v7.56h2.33c0.2,0.37,0.89,0.42,1.35,0.32c0.28-0.06,0.55-0.13,0.82-0.2c0.32,0.17,0.73,0.13,1.08,0.15
		c0.44,0.02,0.88,0.05,1.33,0.06c0.75,0.01,1.45-0.18,2.2-0.12c0.32,0.02,0.63-0.01,0.94-0.06c-0.01,0-0.03,0.01-0.04,0.01
		c0.03-0.01,0.05-0.01,0.08-0.02c0.21-0.04,0.43-0.08,0.64-0.14h2.35v-0.68c0.03-0.02,0.07-0.03,0.1-0.06
		c0.13-0.13,0.07-0.16-0.02-0.29c0.09-0.03,0.14-0.04,0.14-0.04c-0.07-0.33-0.14-0.66-0.22-1V81.8c0.04-0.01,0.06-0.02,0.06-0.02
		c-0.07-0.26-0.05-0.53,0.07-0.77C352.63,80.89,352.72,80.79,352.78,80.68z M343.88,87.82c0.03,0,0.06-0.01,0.09-0.01
		C343.93,87.82,343.9,87.82,343.88,87.82C343.88,87.82,343.88,87.82,343.88,87.82z"/>
	<path class="st0" d="M352.88,73.37c-0.11-0.1-0.22-0.21-0.33-0.31c-0.02-0.11-0.06-0.21-0.11-0.31V72.5
		c0.31-0.79,0.46-1.63,0.38-2.48c-0.04-0.5-0.16-0.98-0.21-1.48c-0.02-0.26-0.03-0.52-0.03-0.78c0-0.26-0.02-0.44,0.17-0.62
		c0.1-0.1,0.35-0.32,0.34-0.48c-0.02-0.15-0.44-0.09-0.58-0.08c-0.03,0-0.05,0.01-0.08,0.01v-0.16h-0.92
		c-0.04-0.03-0.08-0.05-0.12-0.08c-0.38-0.24-0.89-0.13-1.32-0.12c-0.57,0.02-1.15,0.04-1.72,0.06c-0.13,0-0.32,0.07-0.43,0.1
		c-0.05,0.01-0.09,0.02-0.14,0.04h-1.47c-1.15-0.13-2.3-0.24-3.44-0.02c-0.03,0.01-0.06,0.02-0.09,0.02h-0.47
		c-0.08-0.25-0.49-0.06-0.66-0.01c-0.02,0-0.04,0.01-0.06,0.01h-2.22v0.59c-0.02,0.01-0.05,0.02-0.07,0.03
		c-0.02,0.01-0.03,0.02-0.05,0.02c-0.01,0-0.01,0-0.02,0.01c0,0,0,0,0.01,0c-0.1,0.04-0.13,0.03,0.02,0.14
		c-0.04,0.01-0.06,0.03-0.07,0.04c-0.05,0.08-0.27,0.33-0.26,0.43c0.01,0.09,0.19,0.26,0.29,0.34c-0.01,0.13,0,0.25,0,0.38
		c-0.13,0.07-0.21,0.18-0.16,0.38c0.05-0.01,0.1-0.03,0.15-0.04c0,0.08-0.01,0.16,0,0.24c-0.15,0.23-0.04,0.6-0.01,0.92
		c0.04,0.42,0.11,0.84,0.18,1.25v0.02c-0.09,0.04-0.15,0.07-0.16,0.09c-0.11,0.45,0,0.85,0.16,1.27v1.23
		c-0.03,0.02-0.06,0.04-0.09,0.08c-0.1,0.16-0.03,0.37,0.11,0.47c0.25,0.19,0.82-0.14,0.86,0.23c0-0.01,0.22-0.08,0.54-0.16
		c-0.11,0.03-0.23,0.07-0.34,0.1c0.18-0.05,0.36-0.09,0.53-0.14c0.06,0,0.18-0.01,0.39-0.04c0.17-0.02,0.34-0.04,0.52-0.05
		c0.31-0.02,0.61-0.01,0.92,0c-0.1,0.03-0.2,0.06-0.3,0.08c-0.18,0.05-0.37,0.11-0.55,0.17c-0.15,0.05-0.32,0-0.15,0.11
		c0.25,0.16,0.9,0.09,1.18,0.07c0.46-0.04,0.92-0.13,1.38-0.25c0.09,0.01,0.17,0.01,0.26,0.01c1.25,0.04,2.49,0.08,3.74,0.11
		c0.19,0,0.37-0.01,0.55-0.04c-0.01,0.01-0.02,0.02-0.03,0.02c0.07-0.02,0.15-0.04,0.22-0.06c0.18-0.03,0.35-0.07,0.52-0.12
		c0.02,0.01,0.03,0.02,0.06,0.02c0.13,0.04,0.26-0.02,0.39-0.05c0.18-0.04,0.35-0.1,0.53-0.14h1.84v-0.48
		c0.14-0.03,0.36-0.07,0.38-0.18c0-0.02-0.07-0.07-0.15-0.12c0,0,0.01,0,0.01,0C352.75,73.42,352.81,73.4,352.88,73.37z"/>
	<path class="st1" d="M328.68,162.28c0.01-0.05,0.04,0.1,0.04-0.17c0-0.11,0-0.25-0.02-0.23c-0.02,0.02-0.05-0.01-0.05,0.23
		C328.65,162.26,328.67,162.29,328.68,162.28z"/>
	<path class="st1" d="M331.04,137.88c0.01-0.17,0.04,0.31,0.03-0.54c0-0.35,0-0.81-0.02-0.75c-0.02,0.06-0.04-0.02-0.04,0.75
		C331.02,137.82,331.03,137.91,331.04,137.88z"/>
	<path class="st1" d="M342.54,110.05c0.01-0.17,0.04,0.31,0.03-0.54c0-0.35,0-0.81-0.02-0.75c-0.02,0.06-0.04-0.02-0.04,0.75
		C342.52,109.99,342.53,110.08,342.54,110.05z"/>
	<path class="st0" d="M369.97,92.14c-0.13,0.1-0.28,0.17-0.43,0.25C369.68,92.28,369.82,92.17,369.97,92.14
		c-0.69,0.11-4.14,0.89-4.04-0.63c0.04-0.57,0.47-1.14,0.78-1.59c0.48-0.7,1.02-1.27,1.62-1.87c0.74-0.73,1.1-1.56,0.76-2.59
		c-0.5-1.51-0.99-2.95-1.21-4.53c-0.43-3.03-0.23-6.09-0.13-9.14c0.14-3.98,0.3-8.96-3.61-11.3c-0.67-0.4-1.39-0.69-2.14-0.9
		c-0.03-0.05-0.06-0.1-0.08-0.16c-0.01-0.01-0.13,0.01-0.31,0.06c-0.2-0.05-0.4-0.1-0.61-0.14c-0.05-0.07-0.09-0.14-0.14-0.2
		c-0.01-0.02-0.48,0.12-0.43,0.1c-0.01,0-0.01,0-0.02,0c-0.86-0.13-1.73-0.18-2.58-0.19c-3.12-0.03-6.2,0.55-9.3,0.73
		c-1.76,0.1-3.53,0.07-5.26-0.26c-0.59-0.11-1.16-0.25-1.73-0.38c-4.18-2.06-9.19,0.3-13.25-0.9c-1.45-0.43-3.59,0.07-3.8,1.3
		c-0.3,1.74,2.45,0.69,3.59,1.17c3.22,0.73,6.53,1.03,9.98,0.58c6.57,0.14,13.18,0.59,19.93-0.9c-0.01-0.01-0.03-0.01-0.04-0.02
		c0.06-0.01,0.13-0.01,0.2-0.02c0.11,0.25,0.23,0.49,0.39,0.72c0,0.01,0.06-0.01,0.13-0.02c-0.01,0.1-0.02,0.18-0.02,0.21
		c0,0.79,0,1.58,0,2.37c0,5.79,0,11.59,0,17.38c0,2.83,0,5.65,0,8.48c0,1.37-0.09,2.78-0.02,4.15c0,0.03,0,0.05,0,0.08
		c0,0.04,0,0.09,0,0.13c-0.93,0-1.85,0-2.78,0c-0.2-0.04-0.4-0.08-0.6-0.11c-1.89-0.35-3.64-0.29-5.54-0.02
		c-0.3,0.04-0.6,0.09-0.9,0.13c-2.09,0-4.19,0-6.28,0c-4.64,0-9.28,0-13.92,0c-0.2,0-0.4,0-0.6,0c-0.95-0.25-1.99-0.22-2.95-0.22
		c-1,0-2,0-3,0c0,0,0.01,0,0.01,0c0.34-0.09,0.68-0.18,1.02-0.28c0.1-0.03,0.32-0.14,0.42-0.12c-2.05-0.32-4.08,0.18-6.07,0.62
		c-0.97,0-1.95,0-2.92,0c-0.11,0-0.49,0.06-0.58,0c-0.07-0.05-0.03-0.09-0.04-0.21c-0.11-0.93,0-1.94,0-2.88c0-1.79,0-3.59,0-5.38
		c0-4.57,0-9.14,0-13.7c0-1.35,0-2.69,0-4.04c0.04-0.18,0.08-0.36,0.12-0.54c0.23-0.17,0.37-0.42,0.43-0.74
		c0.08-0.42,0.05-0.87,0.05-1.3c0-0.51,0-1.02,0.01-1.53c0-1.07,0.01-2.14,0.01-3.22c0,0.02-0.29,0.1-0.61,0.17
		c0-0.01,0-0.02,0-0.03c-0.01-0.04,0.02-0.12,0-0.15c-0.08-0.11-0.85-0.14-1.02-0.17c-0.49-0.09-0.97-0.2-1.46-0.3
		c-1.79-0.36-3.65-0.52-5.34,0.29c-0.5,0.24-0.98,0.52-1.45,0.82c-0.02,0.01-0.19,0.11-0.2,0.13c-0.18,0.08-0.37,0.12-0.56,0.16
		c-0.45,0.09-0.91,0.12-1.37,0.11c-1.02-0.02-2-0.24-3-0.38c-1.07-0.15-2.14-0.22-3.21-0.3c-1.07-0.08-2.13-0.17-3.19-0.36
		c-0.94-0.17-1.85-0.55-2.81-0.51c-1.54,0.06-2.83,0.94-4.28,1.34c-0.5,0.14-0.98,0.18-1.46,0.09c0-0.01,0-0.03,0-0.04
		c-0.16-0.89-0.74-0.63-1.37-0.58c-0.24,0.02-0.48,0.03-0.72,0.05c-0.53-0.12-1.07-0.21-1.62-0.27c-2.1-0.22-4.21,0-6.29,0.31
		c-0.12,0.02-0.24,0.11-0.37,0.21c-0.17,0.1-0.33,0.19-0.5,0.29c0.09,0,0.18,0,0.27,0c0.34,0.21,0.68,0.39,1.02,0.54
		c-0.01,0.09-0.02,0.18-0.02,0.24c0,0.35,0,0.71,0,1.06c0,0.87,0,1.75,0,2.62c0,0.33,0,0.67,0,1c0,0.11-0.06,0.47,0,0.56
		c0.11,0.17,0.99,0.06,1.22,0.06c0.58,0,1.16,0,1.74,0c2.18,0.78,4.49,0.34,6.69,0.24c0,0,0,0,0,0c0,0,0,0,0,0
		c4.51,0.01,9.02,0.02,13.53,0.04c0.01,0.31-0.05,0.78-0.05,0.91c0,1.32,0,2.64,0,3.95c-0.79,0-1.57,0-2.36,0c-0.19,0-0.37,0-0.56,0
		c-1.32,0-2.64,0-3.96,0c-0.12-0.01-0.23-0.01-0.35-0.01c-0.05,0-0.1,0.01-0.15,0.01c-2.23,0-4.45,0-6.68,0
		c-0.12-0.05-0.24-0.09-0.38-0.1c-0.18-0.01-0.39,0.04-0.6,0.1c-0.7,0-1.4,0-2.11,0c-0.06,0-0.22,0.1-0.38,0.22
		c-0.16,0.09-0.33,0.19-0.49,0.28c3.59,2.82,7.71,4.9,11.9,6.65c1.72,0.72,3.46,1.36,5.22,1.98c0.11,0.07,0.22,0.14,0.34,0.21
		c0.62,0.36,1.32,0.55,2.04,0.6c0.15,0.05,0.29,0.1,0.43,0.15c-0.39,0.41-0.57,0.98-0.54,1.68c-0.27,0.48-0.53,0.96-0.8,1.44
		c-0.45,0.57-0.9,1.14-1.35,1.71c-6.14-2.77-12.22-6.03-17.36-10.42c-0.01-0.01-0.02-0.03-0.03-0.04c0-0.01-0.02,0-0.03-0.01
		c-0.24-0.2-0.48-0.4-0.72-0.6c-1.2-1.07-2.33-2.22-3.38-3.44c0,0-0.87,0.45-0.87,0.5c0,3.34,0,6.67,0,10.01c-0.84,0-1.69,0-2.53,0
		c-0.68,0-1.35,0-2.03,0c-0.24,0-0.39,0.07-0.47-0.1c-0.11-0.23,0-0.81,0-1.06c0-0.65,0-1.31,0-1.96c0-0.36,0-0.73,0-1.09
		c0.19-0.47,0.19-1.12,0.2-1.74c0.02-1.09,0.56-2.16,0.61-3.26c0.03-0.67-0.34-0.99-0.81-1.22c0-0.11,0-0.23,0-0.34
		c-0.11,0.06-0.22,0.13-0.34,0.19c-0.33-0.13-0.67-0.25-0.93-0.43c-0.37-0.26-1.11,0.32-0.84,0.8c0.23,0.4,0.26,0.77,0.22,1.14
		c-0.25,0.29-0.52,0.56-0.78,0.84c-0.02-0.2-0.04-0.46,0-0.51c-0.6,0.68-1.22,1.35-1.85,2.01c-0.58,0.6-1.22,1.16-1.73,1.82
		c-0.01,0.02-0.02,0.03-0.03,0.05c-0.77,0.63-1.55,1.24-2.36,1.83c-0.33,0.07-0.66,0.17-0.99,0.29c-0.02,0.01-0.02,0.22-0.02,0.41
		c-0.67,0.46-1.34,0.91-2.03,1.34c-1.28,0.8-2.61,1.53-3.95,2.22c0-0.13,0-0.25,0-0.38c0-0.11,0-0.23-0.01-0.34
		c-0.65,0.39-1.31,0.76-1.94,1.17c-0.29,0.19-0.44,0.41-0.49,0.74c-0.67,0.31-1.33,0.61-2.01,0.9c-0.14,0.06-0.29,0.12-0.43,0.18
		c-0.17-0.04-0.34-0.05-0.52-0.02c-0.01,0-0.01,0.11-0.02,0.24c-0.36,0.15-0.72,0.31-1.08,0.46c0,0-0.01,0-0.01,0
		c-0.31-0.01-0.63-0.02-0.94,0.01c-0.05,0-0.1,0.01-0.15,0.02c-0.06-0.1-0.11-0.21-0.15-0.29c-0.18-0.3-0.37-0.6-0.55-0.9
		c-0.72-1.18-1.45-2.36-2.17-3.55c-0.06,0.04-0.13,0.07-0.19,0.11c-0.25,0.13-0.67,0.33-0.67,0.39c-0.2,1.57-0.62,3.1-0.78,4.68
		c-0.16,1.55,0.03,3.13,0.11,4.68c0.17,3.27,0.31,6.54,0.18,9.81c-0.11,2.57-0.6,5.08-0.77,7.64c-0.13,2.05,0.25,4.03,1.85,5.45
		c0.26,0.23,0.53,0.43,0.82,0.62c0.13,0.09,0.32,0.16,0.43,0.27c0.18,0.17,0.16,0.15,0.05,0.25c-0.08,0.01-0.15,0.03-0.18,0.03
		c-0.18-0.01-0.35-0.07-0.51-0.15c-0.81-0.39-1.35-1-2.31-0.66c-0.04,0.02-0.24,0.13-0.43,0.25c-0.14,0.08-0.29,0.17-0.43,0.25
		c1.37,1.82,1.76,3.89,1.38,6.11c-0.34,2.02-1.12,3.94-1.47,5.96c-0.19,1.11-0.15,2.22-0.17,3.34c-0.03,1.25-0.09,2.51,0.06,3.75
		c0.27,2.32,1.4,4.45,1.48,6.81c0.04,1.15-0.16,2.29-0.62,3.35c-0.49,1.13-1.03,2.1-1.14,3.36c-0.1,1.2,0.12,2.38,0.5,3.52
		c0.4,1.19,0.56,2.21,0.14,3.42c-0.83,2.37,0.19,4.75,0.25,7.15c0.05,1.85,0.58,3.62,0.81,5.44c0.29,2.23-0.08,4.36-1.54,6.13
		c-0.17,0.21-0.63,0.55-0.73,0.79c-0.09,0.22,0.04,0.05,0.24,0.01c0.17-0.03,0.34-0.06,0.51-0.08c0.5-0.04,1.01,0.02,1.47,0.21
		c0.78,0.33,1.33,0.99,1.86,1.63c0,0,0.83-0.43,0.87-0.5c1.09-2.15,2.13-4.32,3.13-6.51c0.39-0.53,0.76-1.08,1.05-1.66
		c0.3-0.6,0.41-1.22,0.53-1.85c0.37-0.85,0.71-1.71,1.06-2.56c0.57-0.92,1.16-1.84,1.2-2.94c0.09-0.22,0.17-0.45,0.25-0.67
		c0.21-0.27,0.42-0.54,0.66-0.8c0.64-0.68,1.4-1.36,1.59-2.21c0.45,0.18,0.9,0.35,1.35,0.53c0.6,0.23,1.2,0.47,1.8,0.7
		c0.09,0.04,0.4,0.1,0.47,0.18c-0.54,0.64-1,1.85-1.37,2.91c-0.6,1.69-1.22,3.38-1.87,5.18c0,0,0,0,0,0
		c-0.4,0.65-0.7,1.29-0.87,2.04c-0.08,0.33-0.15,0.65-0.23,0.96c-0.37,0.89-0.83,1.95-1.29,3.08c-0.1,0.21-0.2,0.43-0.3,0.64
		c0,0,0.03-0.01,0.05-0.02c-0.06,0.15-0.12,0.31-0.18,0.46c-0.41,1.07-1.08,2.36-1.26,3.39c-0.07,0.16-0.14,0.32-0.21,0.47
		c-0.05,0.12-0.17,0.29-0.19,0.41c-0.03,0.07-0.06,0.14-0.09,0.2c0.17,0.02,0.34,0.04,0.51,0.06c0.03,0,0.07,0.01,0.1,0.01
		c0,0,0,0,0,0c0.32,0.53,0.69,0.47,1.1,0.14c0.03,0,0.05,0.01,0.08,0.01c1.7,0.23,3.4,0.48,5.1,0.69c0.07,0.01,0.25-0.12,0.42-0.24
		c0.15-0.09,0.29-0.17,0.44-0.26c-0.51-0.46-1.03-0.91-1.54-1.37c-0.1-0.09-0.28-0.2-0.36-0.32c-0.12-0.19-0.1,0.05-0.04-0.24
		c0.05-0.23,0.26-0.5,0.36-0.71c0.1-0.21,0.2-0.41,0.3-0.62c0,0.08,0,0.17,0.02,0.25c0.07,0.29,0.24-0.22,0.26-0.28
		c0.13-0.39,0.25-0.79,0.39-1.18c0.26-0.75,0.53-1.49,0.85-2.21c0.3-0.68,0.69-1.3,1-1.97c0.37-0.81,0.31-1.69,0.31-2.57
		c0.09-0.34,0.17-0.67,0.26-1.01c0.14-0.38,0.3-0.76,0.44-1.15c0.16-0.43,0.23-0.85,0.25-1.27c0,0.02,0.01,0.03,0.01,0.05
		c0-0.04,0-0.08,0-0.13c0.01-0.2,0.02-0.4,0.02-0.61c0-0.06,0-0.12,0-0.17c0.39-2.05,0.7-4.12,0.93-6.19
		c0.11-0.23,0.22-0.46,0.32-0.69c0.06-0.14,0.02-0.64,0.02-0.73c0.01-0.49,0.01-0.98,0.01-1.47c0.04-0.18,0.09-0.37,0.13-0.55
		c0.04-0.22,0.02-0.52,0.02-0.73c0.01-0.58,0.01-1.15,0.01-1.73c0.07,0.89,0.16,1.79,0.24,2.68c-0.08-0.81,0.03-1.68,0.02-2.5
		c0-0.83,0.05-1.68-0.02-2.5c-0.04-0.4-0.08-0.81-0.12-1.21c0.01-0.02,0.01-0.03,0.02-0.05c0.04-0.02,0.08-0.03,0.12-0.05
		c0.02-0.01,0.02-0.18,0.02-0.36c0.07-0.22,0.13-0.44,0.15-0.67c0.15-1.45,0.06-2.96,0.05-4.42c-0.01-1.88-0.08-3.75-0.13-5.63
		c0-0.03,0-0.06-0.01-0.09c-0.07,0.22-0.12,0.44-0.18,0.65c-0.01-1.9-0.03-3.79-0.03-5.69c0.06,0.21,0.12,0.42,0.16,0.63
		c0,0.18,0,0.36,0,0.54c0,0.59,0,1.18,0.01,1.77c0,0.22,0.06,0.52,0.02,0.73c0.11-0.53,0.14-1.07,0.15-1.61
		c0.01,0.06,0.01-0.03,0.01-0.26c0-0.09,0.01-0.18,0.01-0.27c0.01-1.37,0.02-2.74-0.01-4.11c-0.01-0.34-0.02-0.68-0.05-1.03
		c-0.01-0.13-0.04-0.26-0.06-0.38c0.1-0.28,0.19-0.57,0.31-0.85c0.01-0.07,0.01-0.14,0.01-0.22c0-0.17,0.01-0.34,0.01-0.52
		c0-0.17,0-0.34,0-0.51c0.08,0.03,0.16,0.05,0.25,0.06c0.21,0,0.42-0.09,0.54-0.27c0.01-0.07,0.01-0.14,0.01-0.22
		c0-0.07,0-0.14,0-0.21c0.57,0.05,1.16,0.08,1.72,0c0.11-0.02,0.21-0.05,0.32-0.07c-0.27,0.09-0.22,0.09,0.15-0.01
		c0.14,0,0.28,0,0.43,0c0,0.04,0.02,0.07,0.01,0.11c-0.01,0.04-0.13,0.15-0.12,0.17c0.01,0.02,0.23,0.03,0.26,0.03
		c0.15,0.01,0.29,0,0.43-0.03c0.11-0.02,0.23-0.06,0.34-0.08c0,0.03,0,0.06,0,0.09c0.51,0.43,1.18,0.52,1.82,0.52
		c0.51,0,1.32,0.06,1.62-0.46c0.01-0.07,0.01-0.14,0.01-0.22c0-0.03,0-0.07,0-0.1c0.47,0.04,1.09,0.08,1.92,0.11
		c0,0.13,0.01,0.21,0.01,0.21c0,0,0.01-0.08,0.01-0.21c0.01,0,0.01,0,0.02,0c0.22,0.14,0.5,0.21,0.77,0.21
		c0.38,0,0.74-0.1,1.11-0.18c0.09,0,0.18,0,0.27,0c3.61,0.02,6.31-0.05,8.52-0.17c0.68,0,1.36,0,2.04,0c0,0.08,0.01,0.15,0.02,0.15
		c1.87,0.23,3.75,0.28,5.63,0.15c0.01,0,0.02-0.12,0.02-0.28c0.01-0.01,0.02-0.01,0.03-0.01c2.74,0,5.48,0,8.22,0
		c0.16,0.23,0.34,0.45,0.56,0.62c0.09,0.07,0.18,0.11,0.27,0.15c0,0.1,0,0.17,0,0.17c0.17-0.01,0.35,0.01,0.52,0.01
		c0,0.11,0,0.22,0,0.33c-0.12,0.69-0.11,1.36,0,2.04c0,0.38,0,0.77,0,1.15c-1.11,0.14-2.22,0.38-3.31,0.4
		c-1.93,0.05-3.84-0.28-5.77-0.41c0,0,0-0.01,0-0.01c-0.31-0.07-0.63-0.07-0.94-0.04v0c-0.01,0-0.02,0-0.02,0
		c-0.11,0.01-0.22,0.02-0.33,0.04c-0.15,0.03-0.29,0.08-0.43,0.14c-0.2,0.08-0.39,0.17-0.57,0.29c-0.51,0-1.02,0-1.53,0
		c-0.1,0-0.85,0.42-0.87,0.5c-0.36,1.57-0.77,3.13-1.31,4.66c-0.12,0.34-0.15,0.22,0.04,0.28c0.14,0.04,0.38,0,0.52,0
		c1.44,0,2.87,0,4.31,0c0.08,0,0.17,0,0.25,0c0,0.03,0,0.06,0,0.09c0.27-0.06,0.55-0.08,0.83-0.04c0,0,0-0.02,0-0.04
		c1.34,0,2.67,0,4.01,0c0.53,0,1.06,0,1.59,0c0.13,0,0.28-0.04,0.34,0.05c0.07,0.1,0,0.53,0,0.65c0,0.44,0,0.87,0,1.31
		c0,1.4,0,2.81,0,4.21c0,2.12,0,4.23,0,6.35c-0.35,1.43-0.46,2.96,0,4.66c0,1.89,0,3.78,0,5.67c-3.13,0-6.26,0-9.39,0
		c-0.09,0-0.87,0.45-0.87,0.5c0,5.4,0,10.79,0,16.19c0,1.39-0.01,2.8-0.59,4.1c0.01-0.02-0.16,0.3-0.16,0.32
		c0,0,0.61-0.04,0.66-0.04c0.37,0.01,0.73,0.07,1.08,0.17c0.85,0.22,1.63,0.56,2.51,0.68c1.64,0.21,3.41,0.17,5.07,0.12
		c3.36-0.1,6.68-0.85,10.05-0.67c1.73,0.09,3.26,0.6,4.91,1.04c1.58,0.43,3.2,0.67,4.83,0.77c1.7,0.1,3.38,0,5.07-0.21
		c2-0.24,4-0.4,6.01-0.48c1.98-0.07,3.97-0.07,5.95,0.02c1.96,0.08,3.92,0.31,5.88,0.32c0.09,0,0.87-0.45,0.87-0.5
		c0-1.83,0-3.66,0-5.49c0-2.32,0-4.64,0-6.96c0.07-0.54,0.1-1.08,0.06-1.62c0-1.58,0.1-2.84-0.03-4.08
		c-0.07-0.61,0.3-1.59-0.03-2.09c0-4.18,0-8.35,0-12.53c0.02-0.81,0.05-1.63,0.07-2.44c0.09-0.47,0.09-0.94,0.04-1.42
		c0.01-0.36,0.02-0.72,0.03-1.08c-0.04,0.08-0.08,0.18-0.13,0.28c-0.01-0.05-0.01-0.11-0.02-0.16c0-1.51,0-3.01,0-4.52
		c0.66-1.28,0.25-2.62,0.15-3.9c0,0,0,0,0,0c0,0,0,0,0,0c0-2.88,0-5.75,0-8.63c3.48,0,6.96,0,10.44,0
		c3.55,2.19,7.71-0.55,11.07,1.21c0.74,0.39,1.69,0.32,2.41-0.14c0,0.92,0,1.84,0,2.75c0,6.57,0,13.14,0,19.72
		c-0.01,0-0.02,0-0.02,0c0,2.84,0,5.67,0,8.51c-0.41,1.68-0.54,3.34,0.03,5.13c0,1.09,0,2.18-0.01,3.26
		c-0.02,1.27-0.18,2.58-0.7,3.75c-0.2,0.45-0.45,0.87-0.75,1.25c-0.16,0.2-0.34,0.39-0.53,0.56c-0.09,0.09-0.19,0.17-0.29,0.25
		c-0.05,0.04-0.1,0.08-0.16,0.11c0,0,0,0,0,0c-0.86,0.37-1.75,0.53-2.65,0.59c-2-1.88-4.49,0.06-6.75,0.02
		c-0.07-0.09-0.11-0.4-0.13-0.48c-0.11-0.38-0.21-0.75-0.32-1.13c-0.27-0.95-0.53-1.89-0.8-2.84c-0.08-0.3-0.17-0.6-0.25-0.89
		c1.54,0.04,3.08,0.09,4.62,0.1c0.98,0,2.2-0.47,2.86-1.24c0.52-0.61,0.58-1.44,0.58-2.21c0.01-3.33,0-6.66,0-9.99
		c0-3.33,0-6.65,0-9.98c0.3-0.95,0.12-1.92,0-2.87c0-0.9,0-1.81,0-2.71c0-1.86,0-3.72,0-5.57c0-0.31,0.17-1.75-0.07-1.89
		c-0.13-0.08-0.55,0-0.69,0c-0.43,0-0.85,0-1.28,0c-1.23,0-2.46,0-3.69,0c-2.17,0-4.33,0-6.5,0c-0.13,0-0.26,0-0.39,0
		c-0.09,0-0.87,0.45-0.87,0.5c0,1.75,0,3.5,0,5.25c0,4.13,0,8.26,0,12.39c0,0.58,0,1.15,0,1.73c-0.13,4.16-0.14,8.34,0,11.77
		c0,0.41,0,0.82,0,1.22c0,4.01,0,8.02,0,12.03c0,1.18,0,2.35,0,3.53c0,0.26-0.05,0.59,0,0.84c0.01,0.03-0.02,0.15,0,0.17
		c0.04,0.04,0.18,0,0.24-0.01c0.61-0.04,1.22-0.12,1.84-0.16c2.32-0.18,4.67-0.24,6.98,0.16c0.94,0.16,1.75,0.44,2.63,0.77
		c0.32,0.12,0.52,0.13,0.72,0.07c-0.01,0.02-0.02,0.04-0.04,0.06c0.09-0.05,0.17-0.1,0.26-0.15c0.12-0.06,0.24-0.13,0.4-0.22
		c0.06-0.04,0.1-0.06,0.14-0.09c0.02-0.01,0.05-0.03,0.07-0.04c-0.01,0-0.01,0-0.02,0c0.04-0.04,0.07-0.09,0.11-0.18
		c0.06-0.17-0.01-0.45,0-0.65c0.01-0.19,0.03-0.39,0.08-0.58c0.05-0.2,0.14-0.35,0.23-0.5c0.01,0,0.02-0.01,0.03-0.01
		c0.95-0.08,1.83,0.37,2.78,0.13c1.05-0.26,2.35-0.43,3.13-1.29c0.28-0.3,0.31-0.67,0.36-1.05c0.08-0.55,0.19-1.1,0.32-1.65
		c0.25-1.06,0.56-2.1,0.81-3.15c0.25-1.05,0.43-2.11,0.43-3.19c0-1.01-0.27-1.98-0.33-2.98c-0.05-0.91,0.1-1.82,0.59-2.61
		c0.26-0.41,0.62-0.75,0.84-1.18c0.22-0.43,0.32-0.91,0.34-1.39c0.08-2.07-0.73-4.13-1.24-6.11c-0.23-0.91-0.45-1.83-0.48-2.77
		c-0.04-1.13,0.15-2.28,0.25-3.41c0.42-4.88,0.8-9.78,0.68-14.68c-0.03-1.24-0.09-2.48-0.18-3.71c-0.07-0.87-0.05-1.53,0.37-2.32
		c0.69-1.29,1.72-2.39,1.04-3.92c-0.85-1.91-0.88-3.97,0.12-5.83c0.14-0.26,0.97-2.07,0.72-2.15c-0.16-0.05-0.75,0.34-0.89,0.4
		c-1.07,0.48-2.13,0.96-3.2,1.43c-0.35,0.16-0.76,0.43-1.14,0.51c-0.04,0.01-0.1,0.05-0.15,0.07c-0.07-0.1-0.14-0.2-0.24-0.3
		c-0.15-0.35-0.32-0.9-0.38-1.05c-0.71-1.66-1.47-3.31-2.26-4.94c-0.07-0.39-0.18-0.76-0.41-1.12c-0.12-0.19-0.26-0.37-0.4-0.55
		c-0.77-1.53-1.57-3.05-2.41-4.54c-0.03-0.1-0.06-0.2-0.09-0.29c-0.3-0.99-0.63-1.7-1.4-2.41c-0.07-0.06-0.13-0.13-0.19-0.19
		c-0.65-1.07-1.31-2.13-1.99-3.18c0.14-0.04,0.28-0.07,0.42-0.11c0.08-0.02,0.15-0.04,0.23-0.06c0.07-0.02,0.13-0.04,0.2-0.06
		c0.05-0.05,0.06-0.1,0.06-0.14c0.12-0.04,0.25-0.08,0.37-0.12c0.15-0.04,0.3-0.08,0.44-0.12c0.08-0.02,0.19-0.05,0.26-0.11
		c0.88-0.28,1.77-0.56,2.65-0.85c0.05-0.01,0.12-0.05,0.2-0.08c0.15,0.35,0.34,0.67,0.65,0.91c0.29,0.22,0.55,0.34,0.7,0.69
		c0.13,0.3,0.15,0.63,0.25,0.95c0.19,0.61,0.62,1.13,1.19,1.43c0.12,0.07,0.26,0.1,0.39,0.13c0.98,1.67,1.93,3.35,2.83,5.07
		c0.12,0.23,0.23,0.46,0.34,0.69c0.26,0.59,0.43,1.21,0.26,1.87c0.01-0.05,0.28-0.12,0.58-0.19c0.84,1.71,1.65,3.43,2.41,5.18
		c0.11-0.06,0.21-0.12,0.32-0.19c0.25-0.12,0.55-0.26,0.54-0.31c-0.08-2.09-0.66-4.12-0.55-6.22c0.1-2.08,0.08-4.16,0.04-6.24
		c-0.04-2-0.08-4.01-0.06-6.01C368.07,94.16,368.68,93.09,369.97,92.14z M344.35,60.41c0.84,0,1.69,0,2.53,0
		C345.92,60.47,345.05,60.48,344.35,60.41z M262.19,142.91c0.01,0.51,0.03,1.03,0.04,1.54c0.01,0.24,0.01,0.48,0.02,0.71
		c0.01,0.56-0.06,0.85-0.15,0.87c0-0.19,0-0.37,0-0.56c0-0.59,0-1.18-0.01-1.77c0-0.13,0-0.26-0.01-0.39c0-0.11,0-0.21-0.01-0.32
		c0.03-0.2,0.06-0.41,0.1-0.63C262.19,142.55,262.18,142.73,262.19,142.91z M262,142.36c0.01-0.03,0.02-0.06,0.03-0.09
		c0.09-0.26,0.1-0.44,0.14-0.07c0,0.03,0,0.06,0,0.08c-0.05,0.21-0.11,0.42-0.18,0.63C262,142.73,262,142.54,262,142.36z
		 M293.7,95.97c0.02-0.06,0.02,0.4,0.02,0.75c0,0.85-0.02,0.37-0.03,0.54c-0.01,0.03-0.03-0.06-0.02-0.55
		C293.66,95.95,293.68,96.02,293.7,95.97z M246.64,166.67c-0.04,0.15-0.07-1.19-0.1-2.38c-0.03-1.09-0.07-2.16-0.1-3.26
		c-0.03-1.27,0-1.29,0.01-1.8c0-0.26,0.04,0.32,0.04,0.8c0.01,1.44,0.09,2.56,0.12,4.4C246.61,164.82,246.68,166.52,246.64,166.67z
		 M254.61,151.49c-0.28,0.29-0.57,0.57-0.85,0.86c-2.28-2.66-4.9-5.02-7.63-7.22c-0.01,0-0.01-0.01-0.02-0.01
		c-0.02-0.06-0.04-0.11-0.07-0.17c-0.41-0.83-1.06-1.44-2.11-1.53c-0.08-0.06-0.16-0.13-0.24-0.19c-0.46-0.34-0.44-0.26-0.09-0.59
		c0.7-0.67,1.4-1.34,2.1-2c0.34-0.32,0.68-0.65,1.02-0.97c3.11,2.32,6.09,4.81,8.83,7.54c0.05,0.05,0.1,0.1,0.15,0.15
		c0.27,0.77,0.41,1.58,0.5,2.5C255.68,150.4,255.15,150.95,254.61,151.49z M258.77,133.95c-0.03,0.03-0.05,0.05-0.08,0.08
		c-0.78,0.4-1.72,0.7-2.34,1.73c-0.05,0.26-0.56,0.55-0.93,0.93c-2.23-2.43-4.73-4.61-7.31-6.66c-0.85-0.68-1.71-1.34-2.58-2
		c-0.11-0.08-0.73-0.46-0.97-0.68c0.63-0.73,1.48-1.13,1.67-1.85c0.17-0.15,0.33-0.3,0.49-0.45c0.38-0.37,0.77-0.73,1.15-1.1
		c1.43,1.05,2.84,2.14,4.22,3.26c1.08,1.51,2.47,2.58,4.11,3.53c0.35,0.32,0.7,0.62,1.04,0.94c0.3,0.29,0.6,0.57,0.9,0.86
		c0.13,0.12,1.02,0.83,1.01,1.01C259.16,133.66,258.84,133.89,258.77,133.95z M256.97,109.5c0-0.77,0.02-0.69,0.04-0.75
		c0.02-0.06,0.02,0.4,0.02,0.75c0,0.85-0.02,0.37-0.03,0.54C256.98,110.08,256.97,109.99,256.97,109.5z M263.32,125.01
		c0-0.01,0-0.02,0-0.04c0.04,0,0.09,0,0.13,0C263.41,124.99,263.37,125,263.32,125.01z M282.5,111.26
		c-0.01,0.18,0.02,0.96-0.04,1.03c-0.05,0.07-0.05-0.55-0.05-1.09c0-0.5-0.02-0.99-0.02-1.49c0-0.58,0.05-0.59,0.07-0.83
		c0.01-0.12,0.04,0.15,0.03,0.37C282.47,109.9,282.52,110.41,282.5,111.26z M299.23,105.53c-0.98,0.5-1.99,0.36-2.98,0.28
		c-0.27-0.02-0.54,0.02-0.81,0.09c-0.82,0-1.65,0-2.47,0c-4.41,0-8.81,0-13.22,0c-1.02,0-2.03,0-3.05,0c-0.08,0-0.16,0.04-0.25,0.1
		c-0.08,0-0.15,0-0.23,0c0.04,0.03,0.07,0.06,0.11,0.1c-0.02,0.02-0.04,0.03-0.06,0.05c-0.22,0.08-0.44,0.17-0.44,0.26
		c0,0.75,0,1.5,0,2.24c-0.01,0.1-0.01,0.2,0,0.3c0,1.13,0,2.26,0,3.4c0,0.52,0.01,1.06,0.01,1.61c-0.12,0.78-0.22,1.6-0.25,2.48
		c-0.2,0.82-0.55,1.6-1.17,2.25c-0.1,0.11-0.2,0.21-0.31,0.3c-0.06,0.05-0.13,0.1-0.19,0.16c-0.02,0.02-0.04,0.03-0.06,0.04
		c0.01,0,0.02,0,0.03,0c-0.04,0.02-0.07,0.04-0.11,0.05c-0.08,0.04-0.17,0.07-0.25,0.1c-0.2,0.08-0.4,0.14-0.6,0.19
		c-0.33,0.09-0.67,0.14-1,0.18c0,0-0.01-0.01-0.01-0.01c0,0,0,0.01,0,0.01c-0.46,0.06-0.92,0.09-1.37,0.1c-0.71,0-1.42,0-2.12,0
		c-1.28,0-2.56,0-3.84,0c-0.52,0-1.04,0-1.56,0c-0.12,0-0.57,0.08-0.67,0c-0.12-0.08-0.18-0.64-0.22-0.77
		c-0.18-0.64-0.35-1.29-0.53-1.93c-0.01-0.05-0.03-0.1-0.04-0.15c-0.03-0.74-0.14-1.49-0.19-2.22c1.47,0.06,2.94,0.11,4.41,0.12
		c0.84,0.01,1.79,0.13,2.62-0.1c0.44-0.13,0.84-0.39,1.23-0.62c1.54-0.92,1.17-3.08,1.17-4.63c0-0.98,0-1.97,0-2.95
		c0-0.26,0.1-0.56-0.1-0.65c-0.19-0.08-0.59-0.02-0.83-0.01c-0.59-0.28-1.67-0.45-2.62-0.23c-0.47,0.11-0.93,0.18-1.38,0.24
		c-1.87,0-3.75,0-5.62,0c-2.42-0.18-5.01-0.41-8.18,0c-2.05,0-4.09,0-6.14,0c-0.16,0-0.71,0.06-1.13,0.06
		c-0.2-0.08-0.39-0.16-0.56-0.26c-0.01-0.19,0.04-0.48,0.04-0.58c0-0.47,0-0.94,0-1.41c0-0.97,0-1.93,0-2.9c0-0.01,0-0.03,0-0.04
		c2.7,0,5.4,0,8.1,0c0.89,0,1.77,0,2.66,0c0.55,0.1,1.11,0.15,1.67,0c0.8,0,1.61,0,2.41,0c0.21,0.12,0.41,0.08,0.6,0
		c0.41,0,0.83,0,1.24,0c1.24,0.52,2.41,0.37,3.56,0c0.71,0,1.43,0,2.14,0c1.09,0,2.18,0,3.27,0c0.09,0,0.87-0.45,0.87-0.5
		c0-0.67,0-1.35,0-2.02c0.06-0.16,0.09-0.36,0.08-0.64c-0.01-0.19-0.01-0.39-0.03-0.59c3.37-1.05,6.09-3.4,9.11-5.21
		c-0.04-0.05-0.07-0.09-0.11-0.13c0.11-0.06,0.21-0.12,0.32-0.18c0,0,0.11-0.08,0.13-0.08c-0.23,0-0.47,0-0.7,0
		c-0.83-0.73-1.61-0.29-2.42,0c-2.92,0-5.84,0-8.76,0c-0.07,0-0.13,0-0.2,0c-0.6-0.06-1.21-0.06-1.83,0c-0.33,0-0.67,0-1,0
		c-3.53-0.38-7.07-0.91-10.73-0.08c0,0,0,0,0-0.01c-0.07-0.12,0-0.48,0-0.62c0-0.36,0-0.72,0-1.08c0-1.07,0-2.15,0-3.22
		c1.54,0,3.07,0,4.61,0c0.48,0,0.96,0,1.45,0c1.81,0.25,3.58,0.09,5.34,0.01c0.04,0,0.07-0.01,0.11-0.01c1.73,0,3.46,0,5.2,0
		c3.99,0,7.99,0,11.98,0c1.3,0,2.61,0,3.91,0c0.36,0,0.72,0,1.08,0c0.06,0,0.3-0.03,0.34,0.01c0.07,0.08,0,0.6,0,0.7
		c0,0.46,0,0.92,0,1.38c0,0.67,0,1.34,0,2.02c-0.13,0.45-0.19,0.94-0.1,1.48c-0.03,0.04-0.07,0.08-0.12,0.11
		c-0.1,0.07-0.2,0.13-0.29,0.2c-0.11,0.07-0.23,0.13-0.32,0.19c-0.22,0.15-0.44,0.3-0.66,0.44c-0.41,0.27-0.83,0.55-1.24,0.81
		c-0.9,0.58-1.82,1.15-2.73,1.71c0.31-0.19,0.62-0.37,0.93-0.56c-0.68,0.42-1.37,0.84-2.07,1.25c0.14-0.08,0.27-0.17,0.41-0.25
		c-0.91,0.55-1.83,1.08-2.76,1.6c-0.56,0.31-1.12,0.62-1.69,0.93c0.44-0.24,0.89-0.48,1.33-0.73c-0.88,0.48-1.76,0.96-2.64,1.42
		c-0.1,0.05-0.85,0.4-0.85,0.49c0,0.19-0.11,1.07,0.02,1.15c0.06,0.04,0.29,0.01,0.38,0c0.26,0.18,0.74,0.23,1.17,0.25
		c4.86,0.23,9.66,0.09,14.44-0.26c1.1,0,2.19,0,3.29,0c1.09,0,2.18,0,3.27,0c0.57,0,1.24-0.1,1.8,0c0.21,0.04,0.12-0.06,0.18,0.12
		c0.06,0.17,0,0.48,0,0.67c0,0.35,0,0.7,0,1.05c0,0.96,0,1.93,0,2.89C299.99,105.45,299.61,105.42,299.23,105.53z M298.78,177.29
		c-0.54,0.14-1.15,0.32-1.85,0.55c-0.37-1.04-0.75-2.07-1.14-3.09c-0.01-0.66-0.21-1.39-0.74-2.35c-0.18-0.32-0.36-0.6-0.56-0.86
		c-1.13-2.67-2.36-5.3-3.74-7.86c1.17-0.4,2.34-0.8,3.51-1.2c0.12-0.04,0.47-0.24,0.59-0.2c0.17,0.04,0.49,0.86,0.58,1.04
		c0.25,0.45,0.49,0.9,0.73,1.36c0.75,1.44,1.46,2.9,2.14,4.37c0.08-0.52,0.21-0.48,0.32-0.57c0.15-0.12,0.15,0.85,0.15,1.58
		c0.81,1.81,1.54,3.66,2.23,5.52c0.06,0.22,0.12,0.43,0.17,0.65C300.38,176.59,299.58,176.94,298.78,177.29z M301.64,122.56
		c-0.01,0.03-0.03-0.06-0.02-0.55c0-0.77,0.02-0.69,0.04-0.75c0.02-0.06,0.02,0.4,0.02,0.75
		C301.68,122.87,301.65,122.38,301.64,122.56z M349.21,147.37c-0.13,0.06-0.23-0.12-0.22-1.16c0.02-1.61,0.23-1.45,0.38-1.57
		c0.15-0.12,0.15,0.85,0.15,1.58C349.53,148.02,349.31,147.01,349.21,147.37z M350.34,97.4c0.01-0.03,0.01,0.22,0.01,0.41
		c0,0.46-0.01,0.2-0.02,0.3c-0.01,0.02-0.01-0.03-0.01-0.3C350.32,97.39,350.33,97.43,350.34,97.4z M337.77,95.99
		c0.02,0.17,0.06,0.34,0.15,0.51c0.01,0.02,0.16-0.01,0.36-0.06c0.59,0.88,1.17,1.77,1.72,2.67c0.01,0.59,0.29,1.12,0.63,1.61
		c0.47,0.67,0.84,1.27,1.11,2.05c0.23,0.69,0.57,1.17,1.18,1.58c0.01,0.01,0.02,0.01,0.02,0.02c0.56,1.1,1.1,2.21,1.61,3.33
		c-0.23,0.06-0.46,0.12-0.68,0.19c-0.08,0.02-0.15,0.04-0.23,0.06c-0.07,0.02-0.13,0.04-0.2,0.06c-0.21,0.27-0.41,0.54-0.62,0.82
		c0.01,0,0.02,0,0.03-0.01c-0.7,0.31-1.4,0.63-2.1,0.94c-0.24,0.11-0.48,0.22-0.72,0.32c-0.17-0.29-0.33-0.58-0.46-0.89
		c-0.44-1.06-0.79-2.11-1.46-3.06c-0.31-0.43-0.64-0.84-0.9-1.3c-0.28-0.49-0.34-1.03-0.58-1.52c-0.25-0.49-0.78-0.89-1.19-1.27
		c-0.82-1.5-1.67-2.98-2.58-4.43C334.49,97.05,336.13,96.52,337.77,95.99z M318.92,126.92c0.2,0,0.4,0.01,0.59,0.01
		c0.44,0.01,1.02-0.26,1.45-0.37c0.34-0.09,0.68-0.18,1.02-0.28c0.02-0.01,0.07-0.02,0.12-0.04c0.05-0.01,0.09-0.02,0.14-0.04
		c-0.37,0.17-0.73,0.33-1.1,0.49c-0.21,0.09-0.42,0.17-0.63,0.26c-0.34,0.05-0.69,0.08-1.04,0.08c-0.25,0-0.54-0.01-0.81-0.04
		C318.76,126.96,318.84,126.94,318.92,126.92z M321.97,126.02c0.73-0.23,1.45-0.47,2.17-0.71c-0.59,0.29-1.18,0.56-1.77,0.83
		C322.25,126.08,322.11,126.04,321.97,126.02z M309.65,80.83c-0.02-0.48,0.04-1.06,0.06-0.8c0.06,0.51,0.16,0.53,0.16,1.8
		c0,1.09-0.04,2.17-0.05,3.26c0,1.19,0,2.54-0.11,2.38c-0.11-0.15-0.05-1.84-0.08-2.24C309.59,83.39,309.71,82.27,309.65,80.83z
		 M304.76,70.67c0.15-0.12,0.15,0.85,0.15,1.58c0.01,1.79-0.21,0.78-0.32,1.14c-0.13,0.06-0.23-0.12-0.22-1.16
		C304.4,70.63,304.61,70.79,304.76,70.67z M304.08,117.18c3.37-5.4,5.95-11.26,7.52-17.43c0.63,0.13,1.27,0.27,1.9,0.4
		c0.24,0.07,0.48,0.16,0.72,0.22c0.39,0.09,0.78,0.14,1.17,0.18c0.11,0.02,0.22,0.05,0.33,0.07c0.4,0.08,1.01,0.1,1.37,0.29
		c0.19,0.1,0.17-0.06,0.11,0.26c-0.14,0.68-0.35,1.35-0.54,2.02c-0.37,1.31-0.76,2.61-1.19,3.9c0,0.01-0.01,0.01-0.01,0.02
		c-0.09,0.2-0.16,0.4-0.22,0.61c-0.45,1.32-0.94,2.63-1.46,3.92c-0.13,0.14-0.22,0.32-0.21,0.51c-0.01,0.03-0.02,0.05-0.03,0.08
		c-0.35,0.26-0.46,0.7-0.48,1.16c-0.07,0.16-0.13,0.33-0.2,0.49c-0.08,0.05-0.14,0.13-0.2,0.24c0.02,0,0.04-0.01,0.05-0.01
		c0.02,0,0.04-0.01,0.06-0.01c-0.01,0.01-0.01,0.03-0.02,0.04c-0.07,0.15-0.14,0.29-0.2,0.44c0,0.01-0.01,0.02-0.01,0.02
		c-0.1,0.21-0.19,0.42-0.29,0.62c-0.02,0.04-0.05,0.07-0.06,0.12c0,0,0.01,0,0.01,0c-0.09,0.18-0.17,0.37-0.26,0.55
		c-0.95,1.47-1.87,2.98-2.75,4.48C307.49,119.3,305.78,118.24,304.08,117.18z M307.42,137.22c-0.04,0.15-0.07-1.19-0.1-2.38
		c-0.03-1.09-0.07-2.16-0.1-3.26c-0.03-1.27,0-1.29,0.01-1.8c0-0.26,0.04,0.32,0.04,0.8c0.01,1.44,0.09,2.56,0.12,4.4
		C307.39,135.37,307.45,137.07,307.42,137.22z M317.03,132.09c-0.22,0.08-0.43,0.17-0.43,0.25c0,2.48,0,4.96,0,7.44
		c0,1.49,0,2.99,0,4.48c0,0.21-0.12,0.84,0,1.03c0.06,0.09,0.09,0.07,0.25,0.07c5.56,0,11.12,0,16.69,0c0.11,0,0.66-0.08,0.75,0
		c0.14,0.13,0.01,1.13,0.01,1.31c0,1.34,0,2.68,0,4.02c-4.87,0-9.75,0-14.62,0c-0.73,0-1.47,0-2.2,0c-0.09,0-0.87,0.45-0.87,0.5
		c0,2.04,0,4.08,0,6.12c-0.19,0.24-0.28,0.54-0.12,0.83c0.05,0.08,0.08,0.16,0.12,0.24c0,0.79,0,1.58,0,2.37
		c-0.34,1.11-0.85,2.29-0.36,3.79c0.33,0.42-0.18,1.86,0.36,2.69c0,0.23,0,0.45,0,0.68c0,0.06-0.04,0.28,0,0.33
		c0.07,0.09,1.76-0.39,1.92-0.43c0.71-0.16,1.41-0.32,2.12-0.48c1.3-0.3,2.59-0.61,3.88-0.93c1.61-0.4,3.22-0.82,4.82-1.25
		c0.88-0.03,1.77-0.08,2.65-0.06c0.66,0.01,1.06-0.27,1.31-0.7c0.01,0.06,0.02,0.11,0.03,0.13c0.18,0.63,0.36,1.25,0.54,1.88
		c0.29,1,0.58,2.01,0.87,3.01c-1.1,0.3-2.2,0.58-3.3,0.86c-1.07-0.15-2.23,0.47-3.39,0.6c-1.72,0.19-3.35,0.67-4.98,1.21
		c0,0.15,0,0.33,0,0.49c0,0.85-0.02,0.37-0.03,0.54c-0.01,0.03-0.03-0.06-0.02-0.55c0-0.22,0-0.37,0.01-0.47
		c-0.77,0.26-1.54,0.52-2.31,0.78c-0.07,0.01-0.13,0.03-0.2,0.05c-1.95,0.43-3.91,0.83-5.87,1.23c-0.17,0-0.34,0.01-0.51,0.01
		c-0.95-0.01-1.98-0.11-2.83,0.19c0,0,0-0.01,0-0.01c-0.25-0.53-0.51-1.05-0.76-1.58c-0.49-1.01-0.97-2.02-1.46-3.03
		c-0.14,0.08-0.29,0.17-0.43,0.25l0,0c1.05-0.61,2.04-1.28,2.48-2.47c0.19-0.52,0.25-1.06,0.26-1.61c0-0.62,0-1.25,0-1.87
		c0-2.93,0-5.86,0-8.79c0-4.39,0-8.78,0-13.16c0.08-0.47,0.14-0.95,0.16-1.42c0.03-0.54-0.04-1.01-0.16-1.44c0-2.2,0-4.39,0-6.59
		c0-1.33,0-2.65,0-3.98c1.45-0.25,2.88-0.54,4.3-0.88c0.79,0.15,1.73,0.04,2.44-0.09c3.75-0.68,7.12-2.27,10.51-3.91
		c0.24-0.07,0.47-0.13,0.71-0.2c0.23-0.07,0.45-0.14,0.68-0.2c0.11,0.04,0.23,0.07,0.36,0.08c0.69,0.02,1.47-0.33,2.11-0.51
		c0.05-0.01,0.13-0.03,0.22-0.05c0.13,0.18,0.26,0.4,0.34,0.5c0.39,0.5,0.78,1.01,1.17,1.51c0.62,0.8,1.24,1.59,1.85,2.39
		c-1.74,0.54-3.49,1.05-5.26,1.52c-4.44,0.48-8.73,1.59-12.95,2.97c-0.13,0.03-0.26,0.05-0.39,0.08c-0.1,0.02-0.19,0.07-0.28,0.14
		c-0.05,0.02-0.11,0.03-0.16,0.05C317.02,132.05,317.03,132.07,317.03,132.09z M352.31,121.01c-0.03,0.02-0.08,0.04-0.13,0.06
		c0.06-0.03,0.13-0.07,0.18-0.09C352.35,120.99,352.33,121,352.31,121.01z M355.01,109.07
		C355.01,109.07,355.01,109.07,355.01,109.07c0.15,0.3,0.34,0.56,0.53,0.82c-0.11,1.18-0.25,2.35-0.42,3.52
		c-0.15,0.31-0.28,0.63-0.36,0.97c-0.08,0.33-0.13,0.67-0.09,1.01c0,0.04,0.01,0.08,0.02,0.12c-0.05,0.24-0.13,0.47-0.17,0.71
		c0,0,0.04-0.01,0.09-0.03c-0.07,0.3-0.14,0.6-0.22,0.9c-0.02,0.02-0.04,0.05-0.05,0.07c-0.21,0.29-0.42,0.58-0.61,0.89
		c-0.19,0.31-0.35,0.63-0.45,0.98c-0.07,0.26-0.19,0.71-0.07,0.97c-0.1,0.15-0.2,0.3-0.31,0.44c-0.14,0.17-0.31,0.32-0.48,0.45
		c-0.06,0.05-0.21,0.13-0.29,0.2c-0.19,0.09-0.39,0.17-0.59,0.24c-0.86,0.3-1.77,0.45-2.68,0.52c0.08-0.02,0.17-0.04,0.25-0.07
		c0.08-0.02,0.15-0.04,0.23-0.06c0.07-0.02,0.13-0.04,0.2-0.06c-0.66-0.04-1.32,0-1.97,0.11c-0.22,0.04-0.45,0.09-0.67,0.14
		c-0.05,0-0.09,0-0.14,0c-2.44-0.17-4.9-0.24-7.37,0c-1.01,0-2.03,0-3.04,0c-1.99,0-3.98,0-5.98,0c-0.58,0-1.15-0.01-1.73-0.02
		c-0.92-0.23-1.86-0.35-2.8-0.4c-0.09-0.03-0.17-0.04-0.26-0.07c-2.69-0.9-4.06-3.27-4.34-5.99c-0.02-0.17-0.02-0.33-0.03-0.5
		c0.33-0.19,0.32-0.54,0.29-0.91c-0.11-1.33-0.21-2.67-0.32-4c0-3.59,0-7.18,0-10.77c1.36,0,2.71,0,4.07,0c0.41,0,0.82,0,1.23,0
		c0.07,0,0.42-0.05,0.47,0c0.1,0.1,0,0.84,0,0.97c0,0.74,0,1.49,0,2.23c-0.13,0.46-0.27,0.92-0.37,1.38
		c-0.41,1.72,0.17,3.29,0.26,5.01c0.06,1.08-0.23,2.34,0.11,3.37c-0.01,1.25,0.01,2.62,1.19,3.35c1.1,0.68,2.65,0.49,3.91,0.49
		c3.93,0,7.86,0,11.8,0c0.49,0,0.98,0,1.47,0c0.76,0,1.35-0.21,1.99-0.55c0,0,0,0,0,0c0.06-0.03,0.12-0.06,0.19-0.1
		c0.85-0.49,1.39-1.1,1.68-2.04c0.38-1.24,0.52-2.56,0.66-3.84c0-0.03,0.01-0.07,0.01-0.11c0.12-0.05,0.24-0.1,0.36-0.15
		c0.24-0.1,0.57-0.17,0.77-0.35c0.14-0.12,0.24-0.35,0.12-0.52c-0.11-0.17-0.34-0.09-0.48-0.21c-0.21-0.17-0.02-0.41,0.07-0.61
		C352.11,108.08,353.56,108.58,355.01,109.07z M360.63,72.06c-0.01,0.03-0.03-0.06-0.02-0.55c0-0.77,0.03-0.69,0.04-0.75
		c0.02-0.06,0.02,0.4,0.02,0.75C360.66,72.36,360.64,71.88,360.63,72.06z"/>
</g>
<g>
</g>
<g>
</g>
<g>
</g>
<g>
</g>
<g>
</g>
<g>
</g>
</svg>
