<svg viewBox="0 0 1620 1028" xmlns="http://www.w3.org/2000/svg"><g id="a"></g><g id="b"><g id="c"><g><path fill="#ebf2f9" d="M1437.34,453.38c-66.53-54.24-146.73-381.38-421.49-211-141.95,88.03-381.32-75.57-579.44-19.06-181.95,51.9-199.49,222.88-181.89,278.59,35.56,112.54-75.11,129.29-177.77,177.64-161.04,75.85-41.69,345.23,110.44,346.51,152.13,1.27,1072.6,0,1072.6,0,0,0,221.27-4.83,313.18-121.43,98.9-125.47,36.21-311.14-135.63-451.25Z"></path><g><path fill="#163560" d="M532.73,995.87s1.93,29.71,7.94,30.13c.8,.06,30.5,.06,30.5,.06l37.91-.21s-.25-8.73-11.33-10.58c-11.08-1.85-29.63-9.29-36.34-23.29-7.06-14.73-28.68,3.89-28.68,3.89Z"></path><g><path fill="#e49963" d="M519.06,649.19s16.51,4.05,27.01,1.03c10.5-3.02,28.57,1.94,31.48,5.6,2.91,3.66,1.84,5.11-3.35,6.38-5.19,1.26-23.59,8.76-35.68,4.42-12.09-4.34-27.86-4.5-27.86-4.5l8.4-12.93Z"></path><path fill="#4a75cb" d="M376.33,512.06s18.55,126.04,49.27,137.33c15.16,5.57,82.15,18.2,101.96,19.47,0,0,4.85-3.76,3.67-19.09,0,0-70.19-24.63-80.16-38.02-14.84-19.93,9.21-81.44-9.41-100.16-18.62-18.72-49.98-26.77-65.34,.48Z"></path></g><path fill="#a6c7f9" d="M378.71,997.69v-27.48h-45.26c-1.22,0-2.22-.96-2.22-2.12v-4.4c0-1.17,1-2.12,2.22-2.12h45.26v-156.43c0-4.39,3.76-7.98,8.35-7.98h8.96c4.59,0,8.35,3.59,8.35,7.98v156.43h45.26c1.22,0,2.22,.96,2.22,2.12v4.4c0,1.17-1,2.12-2.22,2.12h-45.26v27.48c32.75,2.37,58.99,13.64,66.35,28.2h-158.35c7.36-14.56,33.6-25.83,66.35-28.2Z"></path><path fill="#e58638" d="M382.59,777.6c5.41,8.78,11.67,17,18.12,24.78,19.94,24.06,41.64,43.9,45.43,62.65,.75,3.74,1.95,7.76,3.51,12,1.58,4.3,3.53,8.81,5.78,13.48,8.46,17.57,21.11,37.25,33.75,55.15,21.84,30.93,42.38,56.75,42.38,56.75l37.66-1.53c-1.51-3.61-17.93-46.32-39.91-98.52-8.92-21.19-18.41-43.73-27.57-65.46-1.22-2.9-2.44-5.79-3.65-8.66-2.8-6.65-5.55-13.2-8.24-19.58-20.63-49.01-37.07-88.04-37.07-88.04,0,0-82.47-29.86-91.03-10.51-7.06,15.95-1.31,31.58,20.84,67.48Z"></path><path fill="#163560" d="M445.52,911s-26.2,16.09-23.65,21.32c.34,.7,14.81,25.48,14.81,25.48l18.67,31.54s7.85-4.46,4.14-14.61c-3.72-10.15-5.96-29.26,3.56-41.68,10.01-13.07-17.53-22.04-17.53-22.04Z"></path><path fill="#ee9849" d="M480.96,706.46s103.51,61.63,115.07,103.05c11.55,41.42-137.7,129.78-137.7,129.78,0,0-16.37-13.81-19.26-23.93,0,0,67.46-77.26,82.1-94.58,8.99-10.64-132.89-36.82-150.22-62.59-17.33-25.77-11.13-47.46-11.13-47.46l121.14-4.27Z"></path><path fill="#1c468a" d="M285.61,785.6h211.85c4.24,0,7.7,3.31,7.7,7.36v40.5c0,4.05-3.47,7.36-7.7,7.36h-211.85c-4.24,0-7.7-3.31-7.7-7.36v-40.5c0-4.05,3.47-7.36,7.7-7.36Z"></path><path fill="#e49963" d="M433.1,490.46c10.17,6.02,15.77,13.66,15.77,13.66-24.8,6.13-65.91-15.83-65.91-15.83,0,0,15.96-10.25,21.88-32.78,.3-1.14,.57-2.3,.81-3.49,.77-3.79,1.26-7.9,1.34-12.33l11.39,9.75,18.94,16.22s-.43,6.73-2.8,18.31c-.41,2.02-.88,4.19-1.43,6.5Z"></path><path fill="#739af0" d="M356.81,602.28c3.55,45.67-2.42,115.09,1.61,127.12,3.48,10.38,44.4,4.24,60.22,.77,5.85-1.28,12.95-3.11,20.27-5.28,20.43-6.05,42.69-14.68,45.07-21.09,.09-.25,.17-.5,.22-.74,.22-.93,.17-1.8-.04-2.69-.8-3.27-3.86-6.8-4.23-14.89-.4-9.03-.34-19.67-.7-31.1-.02-1.29-.04-2.69-.18-3.97v-.47c-.01-.25-.02-.49-.02-.73-.34-12.75-1.04-26.16-1.85-39.46-.51-8.35-1.11-16.62-1.79-24.55-1.78-20.46-4.18-38.65-7.36-50.15-5.19-18.75-16.64-30.97-27.07-39.94l-7.54-6.18c-8.41,1.76-18.36,.59-27.35-3.48-9.74-4.42-13.1-7.59-14.79-6.39-22.48,16.58-38.66,67.39-34.46,123.22Z"></path><path fill="#4a75cb" d="M438.79,724.99c20.43-6.05,42.69-14.68,45.07-21.09,.09-.25,.17-.5,.22-.74-.01-.9-.02-1.79-.04-2.69-.8-3.27-3.86-6.8-4.23-14.89-.4-9.03-.34-19.67-.7-31.1-.02-1.29-.04-2.69-.18-3.97v-.47c-.01-.25-.02-.49-.02-.73l-77.16-33.45s-4.45,59.44,37.04,109.13Z"></path><path fill="#d68d5d" d="M437.32,465.65s-.43,6.73-2.8,18.31c-18.5-5.71-26.89-21.68-29.69-28.46-.8-1.91-1.14-3.1-1.14-3.1,0,0,.72-.15,1.96-.4,2.6-.53,7.5-1.52,12.73-2.58l18.94,16.22Z"></path><path fill="#e49963" d="M444.81,465.47s-40.64,4.38-43.1-19.85c-2.46-24.23-9.37-39.99,16.47-43.81,25.84-3.82,31.83,4.96,34.71,12.85,2.88,7.9,2.43,49.04-8.08,50.81Z"></path><path fill="#2b478b" d="M401.88,447.3s2.58-32.17,39.57-35.5c25.34-2.28,11.21-23.13,8.51-26.45,0,0-19.41,2.54-39.31,5.69-41.76,6.6-12.87,51.25-8.77,56.26Z"></path><g><polygon fill="#4a75cb" points="598.59 680.78 602.14 681.88 632.41 592.85 628.85 591.74 598.59 680.78"></polygon><polygon fill="#4a75cb" points="499.53 673.91 602.28 676.01 602.14 681.88 499.4 679.78 499.53 673.91"></polygon></g><g><path fill="#e49963" d="M510.57,668.57s15.95,5.77,26.73,3.87c10.78-1.9,28.17,4.94,30.64,8.88,2.47,3.94,1.24,5.28-4.07,5.98-5.31,.71-24.45,6.22-35.97,.64-11.52-5.59-27.17-7.41-27.17-7.41l9.84-11.97Z"></path><path fill="#739af0" d="M384.52,517.23s3.9,127.22,33.13,141.68c14.42,7.13,79.55,26.74,99.1,30.09,0,0,5.26-3.23,5.85-18.58,0,0-66.92-31.88-75.28-46.24-12.45-21.38,18.55-79.97,2.2-100.54-16.35-20.57-46.59-31.87-65-6.41Z"></path></g></g><path fill="#d2e4ff" transform="translate(2044.23 821.1) rotate(180)" d="M788.54,0h467.14c54.4,0,98.56,44.16,98.56,98.56V722.54c0,54.4-44.16,98.56-98.56,98.56h-467.14c-54.4,0-98.56-44.16-98.56-98.56V98.56c0-54.39,44.16-98.56,98.56-98.56Z"></path><rect fill="#f3f9ff" transform="translate(2045.32 824.04) rotate(180)" height="651.93" width="534.8" y="86.05" x="755.26"></rect><g><path fill="#ee9849" d="M1214.22,709.37h0c-15.58,0-28.22-12.08-28.22-26.97V309.48c0-14.9,12.63-26.97,28.22-26.97h0c15.58,0,28.22,12.08,28.22,26.97v372.91c0,14.9-12.63,26.97-28.22,26.97Z"></path><path fill="#ee9849" d="M1121.77,709.37h0c-15.58,0-28.22-12.08-28.22-26.97V190.5c0-14.9,12.63-26.97,28.22-26.97h0c15.58,0,28.22,12.08,28.22,26.97v491.89c0,14.9-12.63,26.97-28.22,26.97Z"></path><path fill="#ee9849" d="M1020.88,709.37h0c-15.58,0-28.22-12.08-28.22-26.97V412.71c0-14.9,12.63-26.97,28.22-26.97h0c15.58,0,28.22,12.08,28.22,26.97v269.68c0,14.9-12.63,26.97-28.22,26.97Z"></path><path fill="#ee9849" d="M922.72,709.37h0c-15.58,0-28.22-12.08-28.22-26.97V263.37c0-14.9,12.63-26.97,28.22-26.97h0c15.58,0,28.22,12.08,28.22,26.97v419.02c0,14.9-12.63,26.97-28.22,26.97Z"></path><path fill="#ee9849" d="M852.26,476.05v206.34c0,14.9-12.63,26.97-28.22,26.97h0c-15.58,0-28.22-12.08-28.22-26.97v-206.34c0-14.9,12.63-26.97,28.22-26.97h0c15.58,0,28.22,12.08,28.22,26.97Z"></path></g><g><path fill="#a6c7f9" d="M897.18,203h47.79c2.72,0,4.94,2.13,4.94,4.73s-2.22,4.73-4.94,4.73h-47.79c-2.72,0-4.94-2.13-4.94-4.73s2.23-4.73,4.94-4.73Z"></path><path fill="#a6c7f9" d="M934.08,220.19h10.89c2.72,0,4.94,2.13,4.94,4.73s-2.22,4.73-4.94,4.73h-10.89c-2.72,0-4.94-2.13-4.94-4.73s2.22-4.73,4.94-4.73Z"></path><path fill="#a6c7f9" d="M1094.12,130.46h47.79c2.72,0,4.94,2.13,4.94,4.73s-2.22,4.73-4.94,4.73h-47.79c-2.72,0-4.94-2.13-4.94-4.73s2.22-4.73,4.94-4.73Z"></path><path fill="#a6c7f9" d="M1131.02,147.66h10.88c2.72,0,4.94,2.13,4.94,4.73h0c0,2.6-2.22,4.73-4.94,4.73h-10.88c-2.72,0-4.94-2.13-4.94-4.73h0c0-2.6,2.23-4.73,4.94-4.73Z"></path><path fill="#a6c7f9" d="M1189.7,249.36h47.79c2.72,0,4.94,2.13,4.94,4.73s-2.22,4.73-4.94,4.73h-47.79c-2.72,0-4.94-2.13-4.94-4.73s2.22-4.73,4.94-4.73Z"></path><path fill="#a6c7f9" d="M1226.61,266.56h10.89c2.72,0,4.94,2.13,4.94,4.73h0c0,2.6-2.22,4.73-4.94,4.73h-10.89c-2.72,0-4.94-2.13-4.94-4.73h0c0-2.6,2.22-4.73,4.94-4.73Z"></path><path fill="#a6c7f9" d="M996.99,352.64h47.79c2.72,0,4.94,2.13,4.94,4.73s-2.23,4.73-4.94,4.73h-47.79c-2.72,0-4.94-2.13-4.94-4.73s2.22-4.73,4.94-4.73Z"></path><path fill="#a6c7f9" d="M1033.89,369.83h10.88c2.72,0,4.94,2.13,4.94,4.73h0c0,2.6-2.23,4.73-4.94,4.73h-10.88c-2.72,0-4.94-2.13-4.94-4.73h0c0-2.6,2.22-4.73,4.94-4.73Z"></path><path fill="#a6c7f9" d="M800.14,415.79h47.79c2.72,0,4.94,2.13,4.94,4.73s-2.23,4.73-4.94,4.73h-47.79c-2.72,0-4.94-2.13-4.94-4.73s2.22-4.73,4.94-4.73Z"></path><path fill="#a6c7f9" d="M837.05,432.99h10.89c2.72,0,4.94,2.13,4.94,4.73s-2.23,4.73-4.94,4.73h-10.89c-2.72,0-4.94-2.13-4.94-4.73s2.22-4.73,4.94-4.73Z"></path></g><g><path fill="#2b478b" d="M824.04,402.34c-9.68,0-17.56-7.53-17.56-16.79s7.88-16.79,17.56-16.79,17.56,7.53,17.56,16.79-7.88,16.79-17.56,16.79Zm0-27.08c-5.94,0-10.76,4.62-10.76,10.29s4.83,10.29,10.76,10.29,10.76-4.62,10.76-10.29-4.83-10.29-10.76-10.29Z"></path><path fill="#2b478b" d="M816.56,375.27c-.87,0-1.74-.32-2.4-.95l-52.78-50.45H332.61c-1.88,0-3.4-1.45-3.4-3.25s1.52-3.25,3.4-3.25h431.59l54.77,52.35c1.33,1.27,1.33,3.33,0,4.6-.66,.63-1.53,.95-2.4,.95Z"></path></g><g><path fill="#2b478b" d="M925.04,756.32c-9.68,0-17.56-7.53-17.56-16.79s7.88-16.79,17.56-16.79,17.56,7.53,17.56,16.79-7.88,16.79-17.56,16.79Zm0-27.08c-5.94,0-10.76,4.62-10.76,10.29s4.83,10.29,10.76,10.29,10.76-4.62,10.76-10.29-4.83-10.29-10.76-10.29Z"></path><path fill="#2b478b" d="M1409.67,807.72h-424.79l-54.77-52.35c-1.33-1.27-1.33-3.33,0-4.6,1.33-1.27,3.48-1.27,4.81,0l52.78,50.45h421.97c1.88,0,3.4,1.45,3.4,3.25s-1.52,3.25-3.4,3.25Z"></path></g><g><path fill="#2b478b" d="M1119.3,117.47c-9.68,0-17.56-7.53-17.56-16.79s7.88-16.79,17.56-16.79,17.56,7.53,17.56,16.79-7.88,16.79-17.56,16.79Zm0-27.08c-5.94,0-10.76,4.62-10.76,10.29s4.83,10.29,10.76,10.29,10.76-4.62,10.76-10.29-4.83-10.29-10.76-10.29Z"></path><path fill="#2b478b" d="M1111.83,90.39c-.87,0-1.74-.32-2.4-.95l-52.78-50.45h-428.77c-1.88,0-3.4-1.45-3.4-3.25s1.52-3.25,3.4-3.25h431.59l54.77,52.35c1.33,1.27,1.33,3.33,0,4.6-.66,.63-1.53,.95-2.4,.95Z"></path></g><path fill="#739af0" d="M619.17,309.85H337.48c-4.76,0-8.61-3.69-8.61-8.23h0c0-4.55,3.86-8.23,8.61-8.23h281.68c4.76,0,8.61,3.69,8.61,8.23h0c0,4.55-3.86,8.23-8.61,8.23Z"></path><path fill="#739af0" d="M619.17,283.86h-172.91c-4.76,0-8.61-3.69-8.61-8.23h0c0-4.55,3.86-8.23,8.61-8.23h172.91c4.76,0,8.61,3.69,8.61,8.23h0c0,4.55-3.86,8.23-8.61,8.23Z"></path><path fill="#739af0" d="M619.17,257.87h-172.91c-4.76,0-8.61-3.69-8.61-8.23h0c0-4.55,3.86-8.23,8.61-8.23h172.91c4.76,0,8.61,3.69,8.61,8.23h0c0,4.55-3.86,8.23-8.61,8.23Z"></path><path fill="#739af0" d="M912.46,23.29h-281.68c-4.76,0-8.61-3.69-8.61-8.23h0c0-4.55,3.86-8.23,8.61-8.23h281.68c4.76,0,8.61,3.69,8.61,8.23h0c0,4.55-3.86,8.23-8.61,8.23Z"></path><g><g><ellipse fill="#82b378" ry="58.59" rx="61.3" cy="889.06" cx="1120.97"></ellipse><path fill="#fff" d="M1120.97,839.52c28.62,0,51.82,22.18,51.82,49.53,0,13.54-5.68,25.8-14.89,34.74l-36.93-34.74-48.42,17.67c-2.19-5.49-3.39-11.44-3.39-17.67,0-27.35,23.2-49.53,51.81-49.53Z"></path><g><path fill="#82b378" d="M1128.54,863.91h22.06c.87,0,1.58,.68,1.58,1.51h0c0,.83-.71,1.51-1.58,1.51h-22.06c-.87,0-1.58-.68-1.58-1.51h0c0-.83,.71-1.51,1.58-1.51Z"></path><path fill="#82b378" d="M1128.54,868.68h22.06c.87,0,1.58,.68,1.58,1.51s-.71,1.51-1.58,1.51h-22.06c-.87,0-1.58-.68-1.58-1.51s.71-1.51,1.58-1.51Z"></path><path fill="#82b378" d="M1141.49,873.45h9.11c.87,0,1.58,.68,1.58,1.51s-.71,1.51-1.58,1.51h-9.11c-.87,0-1.57-.68-1.57-1.51s.71-1.51,1.57-1.51Z"></path></g></g><polygon fill="#82b378" points="1067.29 861.56 1091.54 838.38 1067.29 838.38 1067.29 861.56"></polygon></g><g><g><ellipse fill="#82b378" ry="58.59" rx="61.3" cy="889.06" cx="1327.97"></ellipse><path fill="#fff" d="M1276.16,889.06c0-27.35,23.2-49.53,51.81-49.53s51.82,22.18,51.82,49.53-23.2,49.53-51.82,49.53c-11.82,0-22.71-3.78-31.43-10.15l31.43-39.38-48.42,17.67c-2.19-5.49-3.39-11.44-3.39-17.67Z"></path><g><path fill="#82b378" d="M1335.97,863.91h22.06c.87,0,1.58,.68,1.58,1.51h0c0,.83-.71,1.51-1.58,1.51h-22.06c-.87,0-1.58-.68-1.58-1.51h0c0-.83,.71-1.51,1.58-1.51Z"></path><path fill="#82b378" d="M1335.97,868.68h22.06c.87,0,1.58,.68,1.58,1.51s-.71,1.51-1.58,1.51h-22.06c-.87,0-1.58-.68-1.58-1.51s.71-1.51,1.58-1.51Z"></path><path fill="#82b378" d="M1348.92,873.45h9.11c.87,0,1.58,.68,1.58,1.51s-.71,1.51-1.58,1.51h-9.11c-.87,0-1.58-.68-1.58-1.51s.71-1.51,1.58-1.51Z"></path></g></g><polygon fill="#82b378" points="1274.64 861.56 1298.88 838.38 1274.64 838.38 1274.64 861.56"></polygon></g><path fill="#202f4e" d="M1552.38,1028H135.19c-1.12,0-2.03-.87-2.03-1.94h0c0-1.07,.91-1.94,2.03-1.94H1552.38c1.12,0,2.03,.87,2.03,1.94h0c0,1.07-.91,1.94-2.03,1.94Z"></path></g></g></g></svg>